<?xml version="1.0" encoding="UTF-8"?>
<svg version="1.1" xmlns="http://www.w3.org/2000/svg" width="160" height="150">
<path d="M0 0 C52.8 0 105.6 0 160 0 C160 49.5 160 99 160 150 C107.2 150 54.4 150 0 150 C0 100.5 0 51 0 0 Z " fill="#FDFAFA" transform="translate(0,0)"/>
<path d="M0 0 C1.98 0 3.96 0 6 0 C6 0.66 6 1.32 6 2 C4.68 2 3.36 2 2 2 C2 2.66 2 3.32 2 4 C1.0409375 4.433125 1.0409375 4.433125 0.0625 4.875 C-2.15206079 5.82823451 -2.15206079 5.82823451 -3 8 C-3.06950541 9.54023996 -3.08452357 11.08334988 -3.0625 12.625 C-3.05347656 13.44226562 -3.04445312 14.25953125 -3.03515625 15.1015625 C-3.02355469 15.72804688 -3.01195312 16.35453125 -3 17 C-2.34 17 -1.68 17 -1 17 C-1 17.66 -1 18.32 -1 19 C-0.401875 19.12375 0.19625 19.2475 0.8125 19.375 C3 20 3 20 6 22 C6 22.66 6 23.32 6 24 C6.66 24 7.32 24 8 24 C10.02332616 25.86768569 10.93298787 27.28338048 11.19140625 30.046875 C11.18788604 32.0322723 11.09914617 34.01707668 11 36 C12.98 36 14.96 36 17 36 C18.17664871 32.47005387 18.19850603 29.70544587 18 26 C17.01 24.515 17.01 24.515 16 23 C16.375 20.8125 16.375 20.8125 17 19 C18.9375 19.375 18.9375 19.375 21 20 C21.495 20.99 21.495 20.99 22 22 C23.97888961 22.72693904 25.97954558 23.39816251 28 24 C28 24.66 28 25.32 28 26 C28.99 26 29.98 26 31 26 C34.60742391 29.88491806 35.27894752 33.61313994 35.234375 38.828125 C34.93877282 41.56737191 34.22943898 44.09374106 33.5 46.75 C31.92533414 52.6050956 31.67945176 57.96894421 32 64 C32.66 64 33.32 64 34 64 C34.33 62.68 34.66 61.36 35 60 C35.66 60 36.32 60 37 60 C37 59.34 37 58.68 37 58 C37.66 58 38.32 58 39 58 C39 57.34 39 56.68 39 56 C42.50776784 54.39644899 45.14354879 53.77963136 49 54 C49.495 53.01 49.495 53.01 50 52 C49.48847632 55.78527521 48.79154158 57.44108688 46 60 C44.83301563 63.50095311 44.86731713 66.3122232 44.875 70 C44.87242187 71.2375 44.86984375 72.475 44.8671875 73.75 C44.85008698 77.01230773 44.85008698 77.01230773 46 80 C46.6725839 88.57820128 46.36755265 95.49272075 42 103 C41.67 103.66 41.34 104.32 41 105 C40.34 105 39.68 105 39 105 C38.505 106.98 38.505 106.98 38 109 C37.34 109 36.68 109 36 109 C36 109.66 36 110.32 36 111 C34.35 111.33 32.7 111.66 31 112 C31 112.66 31 113.32 31 114 C28 116 28 116 24 116 C24 116.66 24 117.32 24 118 C23.01 118 22.02 118 21 118 C21 118.66 21 119.32 21 120 C19.35 120 17.7 120 16 120 C16 120.66 16 121.32 16 122 C15.030625 122.12375 14.06125 122.2475 13.0625 122.375 C12.051875 122.58125 11.04125 122.7875 10 123 C9.67 123.66 9.34 124.32 9 125 C6.67843403 125.40729228 4.3431213 125.74438677 2 126 C1.34 127.65 0.68 129.3 0 131 C-0.66 131 -1.32 131 -2 131 C-2.2475 131.845625 -2.495 132.69125 -2.75 133.5625 C-4.13973627 137.38427474 -5.91120838 140.51868063 -8 144 C-10.7578125 144.34375 -10.7578125 144.34375 -14 144 C-16.1171875 141.59375 -16.1171875 141.59375 -17.875 138.5 C-18.47054687 137.4790625 -19.06609375 136.458125 -19.6796875 135.40625 C-20.11539063 134.6121875 -20.55109375 133.818125 -21 133 C-21.33 133.33 -21.66 133.66 -22 134 C-23.66617115 134.04063832 -25.33388095 134.042721 -27 134 C-26.98839844 134.78246094 -26.97679687 135.56492188 -26.96484375 136.37109375 C-26.95582031 137.38300781 -26.94679687 138.39492187 -26.9375 139.4375 C-26.92589844 140.44683594 -26.91429687 141.45617187 -26.90234375 142.49609375 C-27 145 -27 145 -28 146 C-29.98 146 -31.96 146 -34 146 C-34 141.71 -34 137.42 -34 133 C-35.98 133 -37.96 133 -40 133 C-39.95875 133.9075 -39.9175 134.815 -39.875 135.75 C-39.99601574 138.89640926 -40.28104132 140.42156198 -42 143 C-44.83029148 144.41514574 -47.28379133 144.20780992 -50.4375 144.25 C-52.16806641 144.28867187 -52.16806641 144.28867187 -53.93359375 144.328125 C-57 144 -57 144 -58.859375 142.66796875 C-60.57606656 140.15760129 -60.81586643 138.00751492 -61 135 C-60.19468723 132.10087403 -59.46901705 131.27589238 -56.875 129.75 C-51.50568994 128.34931042 -47.53558202 128.34189342 -42.5 130.5 C-41.2625 131.2425 -41.2625 131.2425 -40 132 C-40 130.68 -40 129.36 -40 128 C-35.38 128 -30.76 128 -26 128 C-25.505 126.02 -25.505 126.02 -25 124 C-26.32 123.67 -27.64 123.34 -29 123 C-29 122.01 -29 121.02 -29 120 C-30.65 120 -32.3 120 -34 120 C-34 119.34 -34 118.68 -34 118 C-36.64 117.67 -39.28 117.34 -42 117 C-42 116.34 -42 115.68 -42 115 C-42.66 115 -43.32 115 -44 115 C-44 114.34 -44 113.68 -44 113 C-45.65 112.34 -47.3 111.68 -49 111 C-49 110.34 -49 109.68 -49 109 C-49.66 109 -50.32 109 -51 109 C-51.33 107.68 -51.66 106.36 -52 105 C-52.66 105 -53.32 105 -54 105 C-54.64834654 103.730447 -55.29357815 102.45930294 -55.9375 101.1875 C-56.29714844 100.47980469 -56.65679687 99.77210937 -57.02734375 99.04296875 C-58.94213238 95.02114364 -59.13469184 91.85213294 -59.125 87.4375 C-59.12113281 85.56578125 -59.12113281 85.56578125 -59.1171875 83.65625 C-59.01640853 80.51194626 -58.70844809 77.54371974 -58.25 74.4375 C-57.8474032 70.94065921 -57.89365838 70.20041306 -59.625 66.9375 C-62.18109913 64.85226124 -63.74433231 64.27130564 -67 64 C-67 63.34 -67 62.68 -67 62 C-65.35 62 -63.7 62 -62 62 C-62 61.34 -62 60.68 -62 60 C-59.03 60 -56.06 60 -53 60 C-53 60.66 -53 61.32 -53 62 C-51.35 62 -49.7 62 -48 62 C-48.04640625 60.865625 -48.0928125 59.73125 -48.140625 58.5625 C-48.5621892 43.70071538 -48.5621892 43.70071538 -44 37 C-43.34 37 -42.68 37 -42 37 C-42 36.34 -42 35.68 -42 35 C-40.02 34.505 -40.02 34.505 -38 34 C-38.33 35.65 -38.66 37.3 -39 39 C-38.34 39 -37.68 39 -37 39 C-37 39.66 -37 40.32 -37 41 C-29.64729288 40.74502181 -29.64729288 40.74502181 -22.75 38.4375 C-20.60928511 35.9668909 -20.60928511 35.9668909 -21.0625 32.0625 C-21.52263079 29.66451067 -22.12252966 27.70448728 -23.0625 25.4375 C-24.81134788 20.89049551 -24.50403825 17.19136314 -22.625 12.75 C-21.47234011 10.7993448 -20.25681901 8.88522851 -19 7 C-18.34 7 -17.68 7 -17 7 C-17 6.34 -17 5.68 -17 5 C-11.06108578 2.4084738 -6.45892714 1.59631705 0 2 C0 1.34 0 0.68 0 0 Z " fill="#D22A25" transform="translate(86,0)"/>
<path d="M0 0 C1.98 0 3.96 0 6 0 C6 0.66 6 1.32 6 2 C4.68 2 3.36 2 2 2 C2 2.66 2 3.32 2 4 C1.0409375 4.433125 1.0409375 4.433125 0.0625 4.875 C-2.15206079 5.82823451 -2.15206079 5.82823451 -3 8 C-3.06950541 9.54023996 -3.08452357 11.08334988 -3.0625 12.625 C-3.05347656 13.44226562 -3.04445312 14.25953125 -3.03515625 15.1015625 C-3.02355469 15.72804688 -3.01195312 16.35453125 -3 17 C-2.34 17 -1.68 17 -1 17 C-1 17.66 -1 18.32 -1 19 C-0.401875 19.12375 0.19625 19.2475 0.8125 19.375 C3 20 3 20 6 22 C6 22.66 6 23.32 6 24 C6.66 24 7.32 24 8 24 C10.02332616 25.86768569 10.93298787 27.28338048 11.19140625 30.046875 C11.18788604 32.0322723 11.09914617 34.01707668 11 36 C12.98 36 14.96 36 17 36 C18.17664871 32.47005387 18.19850603 29.70544587 18 26 C17.01 24.515 17.01 24.515 16 23 C16.375 20.8125 16.375 20.8125 17 19 C18.9375 19.375 18.9375 19.375 21 20 C21.495 20.99 21.495 20.99 22 22 C23.97888961 22.72693904 25.97954558 23.39816251 28 24 C28 24.66 28 25.32 28 26 C28.99 26 29.98 26 31 26 C34.60742391 29.88491806 35.27894752 33.61313994 35.234375 38.828125 C34.93877282 41.56737191 34.22943898 44.09374106 33.5 46.75 C31.92533414 52.6050956 31.67945176 57.96894421 32 64 C32.66 64 33.32 64 34 64 C34.33 63.01 34.66 62.02 35 61 C37.64 61.33 40.28 61.66 43 62 C43 67.61 43 73.22 43 79 C42.34 78.67 41.68 78.34 41 78 C38.90178785 78.39938767 38.90178785 78.39938767 37 79 C36.7525 78.030625 36.505 77.06125 36.25 76.0625 C35.8375 75.051875 35.425 74.04125 35 73 C33.08333333 72.16666667 33.08333333 72.16666667 31 72 C29.515 71.01 29.515 71.01 28 70 C28 69.34 28 68.68 28 68 C27.34 68 26.68 68 26 68 C26 67.34 26 66.68 26 66 C24.9275 65.71125 23.855 65.4225 22.75 65.125 C19.90599636 64.27179891 17.56491017 63.4363497 15 62 C15 61.34 15 60.68 15 60 C13.35 60 11.7 60 10 60 C10 59.34 10 58.68 10 58 C-0.89 58 -11.78 58 -23 58 C-23 58.66 -23 59.32 -23 60 C-24.65 60 -26.3 60 -28 60 C-28 60.66 -28 61.32 -28 62 C-31.63 62.99 -35.26 63.98 -39 65 C-39 65.66 -39 66.32 -39 67 C-39.66 67 -40.32 67 -41 67 C-41 67.66 -41 68.32 -41 69 C-41.66 69 -42.32 69 -43 69 C-43 69.66 -43 70.32 -43 71 C-44.32 71 -45.64 71 -47 71 C-48.07019501 65.69252881 -48.25239952 60.51801607 -48.3125 55.125 C-48.34150391 54.26519531 -48.37050781 53.40539063 -48.40039062 52.51953125 C-48.4621079 46.26234885 -47.17372183 42.39595309 -44 37 C-43.34 37 -42.68 37 -42 37 C-42 36.34 -42 35.68 -42 35 C-40.02 34.505 -40.02 34.505 -38 34 C-38.495 36.475 -38.495 36.475 -39 39 C-38.34 39 -37.68 39 -37 39 C-37 39.66 -37 40.32 -37 41 C-29.64729288 40.74502181 -29.64729288 40.74502181 -22.75 38.4375 C-20.60928511 35.9668909 -20.60928511 35.9668909 -21.0625 32.0625 C-21.52263079 29.66451067 -22.12252966 27.70448728 -23.0625 25.4375 C-24.81134788 20.89049551 -24.50403825 17.19136314 -22.625 12.75 C-21.47234011 10.7993448 -20.25681901 8.88522851 -19 7 C-18.34 7 -17.68 7 -17 7 C-17 6.34 -17 5.68 -17 5 C-11.06108578 2.4084738 -6.45892714 1.59631705 0 2 C0 1.34 0 0.68 0 0 Z " fill="#E33824" transform="translate(86,0)"/>
<path d="M0 0 C6.93 0 13.86 0 21 0 C21 0.66 21 1.32 21 2 C22.175625 1.938125 23.35125 1.87625 24.5625 1.8125 C29.03960301 1.78855827 32.0241888 3.0120944 36 5 C36 5.66 36 6.32 36 7 C36.66 7 37.32 7 38 7 C38 7.66 38 8.32 38 9 C38.99 9 39.98 9 41 9 C41 9.66 41 10.32 41 11 C41.66 11 42.32 11 43 11 C46.71112032 16.50682371 48.30175987 21.29662004 48 28 C47.2953413 30.6475034 46.32254767 32.55083765 45 35 C44.608125 35.804375 44.21625 36.60875 43.8125 37.4375 C43.544375 37.953125 43.27625 38.46875 43 39 C42.34 39 41.68 39 41 39 C41 39.66 41 40.32 41 41 C40.34 41 39.68 41 39 41 C39 41.66 39 42.32 39 43 C38.34 43 37.68 43 37 43 C37 43.66 37 44.32 37 45 C28.57142857 48.42857143 28.57142857 48.42857143 24 48 C23.67 48.99 23.34 49.98 23 51 C13.87247617 51.74440282 5.12123495 52.25610227 -4 51 C-4 50.34 -4 49.68 -4 49 C-4.928125 48.855625 -5.85625 48.71125 -6.8125 48.5625 C-10 48 -10 48 -13 47 C-13 46.34 -13 45.68 -13 45 C-13.99 45 -14.98 45 -16 45 C-16 44.34 -16 43.68 -16 43 C-16.66 43 -17.32 43 -18 43 C-18 42.34 -18 41.68 -18 41 C-19.32 40.34 -20.64 39.68 -22 39 C-22 38.34 -22 37.68 -22 37 C-22.99 36.67 -23.98 36.34 -25 36 C-27.46603153 30.93814581 -27.81095331 25.51117253 -27 20 C-25.28110703 15.38313871 -23.23561591 11.94826337 -19.3125 8.9375 C-17 8 -17 8 -15 8 C-15 7.01 -15 6.02 -15 5 C-9.8531808 1.83272665 -5.841744 1.64949536 0 2 C0 1.34 0 0.68 0 0 Z " fill="#060607" transform="translate(69,62)"/>
<path d="M0 0 C0.75990234 -0.00386719 1.51980469 -0.00773437 2.30273438 -0.01171875 C7.30613828 -0.00317323 12.10947326 0.41500982 17.0625 1.125 C17.0625 1.785 17.0625 2.445 17.0625 3.125 C18.7125 3.125 20.3625 3.125 22.0625 3.125 C22.0625 3.785 22.0625 4.445 22.0625 5.125 C22.578125 5.228125 23.09375 5.33125 23.625 5.4375 C26.92276435 6.36763866 29.92883332 7.73895512 33.0625 9.125 C33.0625 9.785 33.0625 10.445 33.0625 11.125 C33.7225 11.125 34.3825 11.125 35.0625 11.125 C39.90370765 15.56164991 43.57236361 20.91118853 44.34375 27.54296875 C44.54983649 33.21893425 43.67240889 37.10594444 41.0625 42.125 C40.670625 42.929375 40.27875 43.73375 39.875 44.5625 C39.606875 45.078125 39.33875 45.59375 39.0625 46.125 C38.4025 46.125 37.7425 46.125 37.0625 46.125 C37.0625 46.785 37.0625 47.445 37.0625 48.125 C36.4025 48.125 35.7425 48.125 35.0625 48.125 C35.0625 48.785 35.0625 49.445 35.0625 50.125 C32.15701118 52.16669485 30.66107954 53.125 27.0625 53.125 C27.0625 53.785 27.0625 54.445 27.0625 55.125 C11.39534869 63.82897295 -6.07840487 62.24774815 -22.9375 58.125 C-22.9375 57.135 -22.9375 56.145 -22.9375 55.125 C-23.9275 55.125 -24.9175 55.125 -25.9375 55.125 C-25.9375 54.465 -25.9375 53.805 -25.9375 53.125 C-27.0821875 52.939375 -27.0821875 52.939375 -28.25 52.75 C-30.9375 52.125 -30.9375 52.125 -33.9375 50.125 C-33.9375 49.465 -33.9375 48.805 -33.9375 48.125 C-34.5975 48.125 -35.2575 48.125 -35.9375 48.125 C-35.9375 47.465 -35.9375 46.805 -35.9375 46.125 C-36.5975 46.125 -37.2575 46.125 -37.9375 46.125 C-43.01693336 39.10449746 -44.28004034 32.6966037 -42.9375 24.125 C-41.61118586 20.54852531 -39.97351951 17.34627372 -37.9375 14.125 C-37.2775 14.125 -36.6175 14.125 -35.9375 14.125 C-35.9375 13.465 -35.9375 12.805 -35.9375 12.125 C-35.2775 12.125 -34.6175 12.125 -33.9375 12.125 C-33.9375 11.465 -33.9375 10.805 -33.9375 10.125 C-33.2775 10.125 -32.6175 10.125 -31.9375 10.125 C-31.9375 9.465 -31.9375 8.805 -31.9375 8.125 C-25.4375 5.125 -25.4375 5.125 -20.9375 5.125 C-20.9375 4.465 -20.9375 3.805 -20.9375 3.125 C-19.2875 3.125 -17.6375 3.125 -15.9375 3.125 C-15.9375 2.465 -15.9375 1.805 -15.9375 1.125 C-10.58013488 0.22854847 -5.42685977 -0.02747777 0 0 Z M-9.9375 5.125 C-9.9375 5.785 -9.9375 6.445 -9.9375 7.125 C-10.51757812 7.09019531 -11.09765625 7.05539063 -11.6953125 7.01953125 C-16.946634 6.83755476 -20.33261219 7.29122289 -24.9375 10.125 C-24.9375 11.115 -24.9375 12.105 -24.9375 13.125 C-25.700625 13.393125 -26.46375 13.66125 -27.25 13.9375 C-31.65588521 15.88428649 -33.8109821 18.7969982 -36.140625 23.03515625 C-38.17334206 28.36605637 -37.63123671 34.06480413 -35.4375 39.25 C-34.9425 40.19875 -34.4475 41.1475 -33.9375 42.125 C-33.2775 42.125 -32.6175 42.125 -31.9375 42.125 C-31.2775 43.445 -30.6175 44.765 -29.9375 46.125 C-29.2775 46.125 -28.6175 46.125 -27.9375 46.125 C-27.9375 46.785 -27.9375 47.445 -27.9375 48.125 C-27.2775 48.125 -26.6175 48.125 -25.9375 48.125 C-25.9375 48.785 -25.9375 49.445 -25.9375 50.125 C-24.9475 50.125 -23.9575 50.125 -22.9375 50.125 C-22.9375 50.785 -22.9375 51.445 -22.9375 52.125 C-19.56652617 53.62321059 -17.73307881 54.125 -13.9375 54.125 C-13.9375 54.785 -13.9375 55.445 -13.9375 56.125 C-10.9378508 56.32154959 -7.93814899 56.50746106 -4.9375 56.6875 C-4.09832031 56.74357422 -3.25914063 56.79964844 -2.39453125 56.85742188 C2.92187226 57.1665151 7.79897304 56.94742609 13.0625 56.125 C13.3925 55.135 13.7225 54.145 14.0625 53.125 C15.279375 53.00125 16.49625 52.8775 17.75 52.75 C21.12729059 52.33608694 23.96006695 51.57926549 27.0625 50.125 C27.0625 49.465 27.0625 48.805 27.0625 48.125 C27.7225 48.125 28.3825 48.125 29.0625 48.125 C29.0625 47.465 29.0625 46.805 29.0625 46.125 C29.7225 46.125 30.3825 46.125 31.0625 46.125 C31.0625 45.465 31.0625 44.805 31.0625 44.125 C31.7225 44.125 32.3825 44.125 33.0625 44.125 C36.77362032 38.61817629 38.36425987 33.82837996 38.0625 27.125 C37.3578413 24.4774966 36.38504767 22.57416235 35.0625 20.125 C34.4746875 18.9184375 34.4746875 18.9184375 33.875 17.6875 C33.4728125 16.9140625 33.4728125 16.9140625 33.0625 16.125 C32.4025 16.125 31.7425 16.125 31.0625 16.125 C31.0625 15.465 31.0625 14.805 31.0625 14.125 C30.0725 14.125 29.0825 14.125 28.0625 14.125 C28.0625 13.465 28.0625 12.805 28.0625 12.125 C27.4025 12.125 26.7425 12.125 26.0625 12.125 C26.0625 11.465 26.0625 10.805 26.0625 10.125 C20.69810356 7.44280178 17.05243047 6.8097405 11.0625 7.125 C11.0625 6.465 11.0625 5.805 11.0625 5.125 C4.1325 5.125 -2.7975 5.125 -9.9375 5.125 Z " fill="#FBE8E9" transform="translate(78.9375,56.875)"/>
<path d="M0 0 C1.99954746 -0.04254356 4.00041636 -0.04080783 6 0 C6.495 0.495 6.495 0.495 7 1 C9.28988781 1.15888092 11.58443441 1.25138073 13.87890625 1.31640625 C14.5655687 1.33718735 15.25223114 1.35796844 15.95970154 1.37937927 C18.16052935 1.44494143 20.36147975 1.50379015 22.5625 1.5625 C24.05144514 1.60567892 25.54037773 1.649293 27.02929688 1.69335938 C30.68606553 1.8006293 34.34297318 1.90187772 38 2 C38 2.33 38 2.66 38 3 C35.69 3.33 33.38 3.66 31 4 C30.34 5.65 29.68 7.3 29 9 C28.34 9 27.68 9 27 9 C26.7525 9.845625 26.505 10.69125 26.25 11.5625 C24.86026373 15.38427474 23.08879162 18.51868063 21 22 C18.2421875 22.34375 18.2421875 22.34375 15 22 C12.8828125 19.59375 12.8828125 19.59375 11.125 16.5 C10.52945313 15.4790625 9.93390625 14.458125 9.3203125 13.40625 C8.88460937 12.6121875 8.44890625 11.818125 8 11 C7.67 11.33 7.34 11.66 7 12 C5.33382885 12.04063832 3.66611905 12.042721 2 12 C2.01160156 12.78246094 2.02320313 13.56492188 2.03515625 14.37109375 C2.04417969 15.38300781 2.05320313 16.39492187 2.0625 17.4375 C2.07410156 18.44683594 2.08570313 19.45617187 2.09765625 20.49609375 C2 23 2 23 1 24 C-0.98 24 -2.96 24 -5 24 C-5 19.71 -5 15.42 -5 11 C-6.98 11 -8.96 11 -11 11 C-10.95875 11.9075 -10.9175 12.815 -10.875 13.75 C-10.99601574 16.89640926 -11.28104132 18.42156198 -13 21 C-15.83029148 22.41514574 -18.28379133 22.20780992 -21.4375 22.25 C-22.59121094 22.27578125 -23.74492188 22.3015625 -24.93359375 22.328125 C-28 22 -28 22 -29.859375 20.66796875 C-31.57606656 18.15760129 -31.81586643 16.00751492 -32 13 C-31.19468723 10.10087403 -30.46901705 9.27589238 -27.875 7.75 C-22.50568994 6.34931042 -18.53558202 6.34189342 -13.5 8.5 C-12.675 8.995 -11.85 9.49 -11 10 C-11 8.68 -11 7.36 -11 6 C-6.38 6 -1.76 6 3 6 C3.33 4.68 3.66 3.36 4 2 C2.68 1.34 1.36 0.68 0 0 Z " fill="#C14444" transform="translate(57,122)"/>
<path d="M0 0 C1.98 0 3.96 0 6 0 C6 0.66 6 1.32 6 2 C7.32 2 8.64 2 10 2 C10 2.66 10 3.32 10 4 C11.32 4 12.64 4 14 4 C14 4.66 14 5.32 14 6 C14.66386719 6.03738281 15.32773438 6.07476562 16.01171875 6.11328125 C21.16610584 6.49703854 24.68564708 6.95457441 29 10 C31.19130534 10.69579454 31.19130534 10.69579454 33 11 C33 11.66 33 12.32 33 13 C34.98 13.33 36.96 13.66 39 14 C39.495 15.485 39.495 15.485 40 17 C39.67 17.66 39.34 18.32 39 19 C37.35 19 35.7 19 34 19 C34 19.66 34 20.32 34 21 C32.68 21 31.36 21 30 21 C30 21.66 30 22.32 30 23 C28.25183142 23.50636607 26.50137737 24.00484619 24.75 24.5 C23.77546875 24.7784375 22.8009375 25.056875 21.796875 25.34375 C19 26 19 26 15 26 C15 26.66 15 27.32 15 28 C11.5980513 30.09350689 8.94727588 30.17942163 5 30 C5 30.66 5 31.32 5 32 C3.68 32 2.36 32 1 32 C-0.46098845 29.0780231 -0.11134901 26.50106525 -0.09765625 23.2421875 C-0.0962413 22.57913605 -0.09482635 21.91608459 -0.09336853 21.23294067 C-0.08776754 19.11358137 -0.075215 16.99432741 -0.0625 14.875 C-0.05748512 13.43880361 -0.05292219 12.00260556 -0.04882812 10.56640625 C-0.03779782 7.04423655 -0.02053259 3.52212855 0 0 Z " fill="#EFEFEF" transform="translate(65,71)"/>
<path d="M0 0 C0.495 1.485 0.495 1.485 1 3 C-0.28062485 4.7074998 -1.61767557 6.37373596 -3 8 C-4.16698437 11.50095311 -4.13268287 14.3122232 -4.125 18 C-4.12757813 19.2375 -4.13015625 20.475 -4.1328125 21.75 C-4.14991302 25.01230773 -4.14991302 25.01230773 -3 28 C-2.3274161 36.57820128 -2.63244735 43.49272075 -7 51 C-7.495 51.99 -7.495 51.99 -8 53 C-8.66 53 -9.32 53 -10 53 C-10.33 54.32 -10.66 55.64 -11 57 C-11.66 57 -12.32 57 -13 57 C-13 57.66 -13 58.32 -13 59 C-15.475 59.495 -15.475 59.495 -18 60 C-18 60.66 -18 61.32 -18 62 C-21 64 -21 64 -25 64 C-25 64.66 -25 65.32 -25 66 C-25.99 66 -26.98 66 -28 66 C-28 66.66 -28 67.32 -28 68 C-29.65 68 -31.3 68 -33 68 C-33 68.66 -33 69.32 -33 70 C-37.89771443 71.57975606 -42.02257561 72.25599736 -47.21875 72.265625 C-47.88032104 72.26753845 -48.54189209 72.2694519 -49.22351074 72.27142334 C-50.61173893 72.27277447 -51.99998023 72.26915358 -53.38818359 72.26074219 C-55.49475901 72.25002666 -57.60048187 72.26067351 -59.70703125 72.2734375 C-61.06510602 72.27211571 -62.42318027 72.26955293 -63.78125 72.265625 C-65.6075293 72.26224121 -65.6075293 72.26224121 -67.47070312 72.25878906 C-71.2959685 71.97829783 -74.36350376 71.17295058 -78 70 C-77.505 69.01 -77.505 69.01 -77 68 C-76.11699219 68.32613281 -75.23398438 68.65226562 -74.32421875 68.98828125 C-68.60366573 70.61963956 -62.70922447 70.24957078 -56.8125 70.1875 C-55.63751953 70.18685547 -54.46253906 70.18621094 -53.25195312 70.18554688 C-46.54619521 70.23903999 -46.54619521 70.23903999 -40 69 C-41.68300669 67.31699331 -43.82008727 67.77190923 -46.12890625 67.68359375 C-47.16337891 67.64169922 -48.19785156 67.59980469 -49.26367188 67.55664062 C-50.35228516 67.51732422 -51.44089844 67.47800781 -52.5625 67.4375 C-53.65498047 67.39431641 -54.74746094 67.35113281 -55.87304688 67.30664062 C-58.58189564 67.20017932 -61.29083992 67.09816484 -64 67 C-64 66.67 -64 66.34 -64 66 C-62.88882813 65.95101562 -61.77765625 65.90203125 -60.6328125 65.8515625 C-45.62230086 65.52100395 -45.62230086 65.52100395 -32 60 C-31.01 60 -30.02 60 -29 60 C-29 59.34 -29 58.68 -29 58 C-23.25 55 -23.25 55 -21 55 C-21 54.34 -21 53.68 -21 53 C-20.34 53 -19.68 53 -19 53 C-19 52.34 -19 51.68 -19 51 C-18.34 51 -17.68 51 -17 51 C-16.31653318 49.34015202 -15.65411685 47.67163195 -15 46 C-14.62875 45.113125 -14.2575 44.22625 -13.875 43.3125 C-11.77730595 35.37122968 -12.95224772 28.51053241 -16 21 C-15.34 21 -14.68 21 -14 21 C-12.375 23.5 -12.375 23.5 -11 26 C-9.68 25.67 -8.36 25.34 -7 25 C-6.67 20.05 -6.34 15.1 -6 10 C-8.64 9.67 -11.28 9.34 -14 9 C-13.34 8.67 -12.68 8.34 -12 8 C-12 7.34 -12 6.68 -12 6 C-11.34 6 -10.68 6 -10 6 C-10 5.34 -10 4.68 -10 4 C-6.49223216 2.39644899 -3.85645121 1.77963136 0 2 C0 1.34 0 0.68 0 0 Z " fill="#CD2B26" transform="translate(135,52)"/>
<path d="M0 0 C1.99954746 -0.04254356 4.00041636 -0.04080783 6 0 C6.33 0.33 6.66 0.66 7 1 C9.28988781 1.15888092 11.58443441 1.25138073 13.87890625 1.31640625 C14.5655687 1.33718735 15.25223114 1.35796844 15.95970154 1.37937927 C18.16052935 1.44494143 20.36147975 1.50379015 22.5625 1.5625 C24.05144514 1.60567892 25.54037773 1.649293 27.02929688 1.69335938 C30.68606553 1.8006293 34.34297318 1.90187772 38 2 C38 2.33 38 2.66 38 3 C35.69 3.33 33.38 3.66 31 4 C30.34 5.65 29.68 7.3 29 9 C28.34 9 27.68 9 27 9 C26.7525 9.845625 26.505 10.69125 26.25 11.5625 C24.86026373 15.38427474 23.08879162 18.51868063 21 22 C18.23828125 22.32421875 18.23828125 22.32421875 15 22 C12.91796875 19.76953125 12.91796875 19.76953125 11.1875 16.8125 C10.60355469 15.84957031 10.01960938 14.88664063 9.41796875 13.89453125 C8.09392243 11.19172595 7.41716221 8.96347702 7 6 C5.68 6 4.36 6 3 6 C3.33 4.68 3.66 3.36 4 2 C2.68 1.34 1.36 0.68 0 0 Z " fill="#F8EBEB" transform="translate(57,122)"/>
<path d="M0 0 C1.65 0 3.3 0 5 0 C4.62905576 3.80217848 4.01095733 5.98273391 1.9375 9.25 C-1.32602935 14.60218814 -0.49474389 20.37785736 0.625 26.3125 C2.46842155 29.91555121 4.82396572 31.51440796 8 34 C8 34.66 8 35.32 8 36 C8.66 36 9.32 36 10 36 C10 36.66 10 37.32 10 38 C10.99 38 11.98 38 13 38 C13 38.66 13 39.32 13 40 C13.95712891 40.18175781 13.95712891 40.18175781 14.93359375 40.3671875 C16.17302734 40.61855469 16.17302734 40.61855469 17.4375 40.875 C18.26121094 41.03742188 19.08492187 41.19984375 19.93359375 41.3671875 C20.61550781 41.57601562 21.29742187 41.78484375 22 42 C22.33 42.66 22.66 43.32 23 44 C24.89533342 44.46523063 24.89533342 44.46523063 27.0625 44.625 C28.361875 44.74875 29.66125 44.8725 31 45 C31 45.33 31 45.66 31 46 C28.93757383 46.02717692 26.87504297 46.0464758 24.8125 46.0625 C23.66394531 46.07410156 22.51539062 46.08570313 21.33203125 46.09765625 C18.40699414 46.01192832 15.83683709 45.67849023 13 45 C13 44.34 13 43.68 13 43 C12.01 43 11.02 43 10 43 C10 42.34 10 41.68 10 41 C8.8553125 40.814375 8.8553125 40.814375 7.6875 40.625 C5 40 5 40 2 38 C2 37.34 2 36.68 2 36 C1.34 36 0.68 36 0 36 C0 35.34 0 34.68 0 34 C-0.66 34 -1.32 34 -2 34 C-7.07943336 26.97949746 -8.34254034 20.5716037 -7 12 C-5.67368586 8.42352531 -4.03601951 5.22127372 -2 2 C-1.34 2 -0.68 2 0 2 C0 1.34 0 0.68 0 0 Z " fill="#F3EBEA" transform="translate(43,69)"/>
<path d="M0 0 C0.75990234 -0.00386719 1.51980469 -0.00773437 2.30273438 -0.01171875 C7.30613828 -0.00317323 12.10947326 0.41500982 17.0625 1.125 C17.0625 1.785 17.0625 2.445 17.0625 3.125 C18.7125 3.125 20.3625 3.125 22.0625 3.125 C22.0625 3.785 22.0625 4.445 22.0625 5.125 C23.0525 5.455 24.0425 5.785 25.0625 6.125 C23.7425 6.125 22.4225 6.125 21.0625 6.125 C21.0625 6.785 21.0625 7.445 21.0625 8.125 C21.7225 8.455 22.3825 8.785 23.0625 9.125 C17.1225 8.135 17.1225 8.135 11.0625 7.125 C11.0625 6.465 11.0625 5.805 11.0625 5.125 C4.1325 5.125 -2.7975 5.125 -9.9375 5.125 C-9.9375 5.785 -9.9375 6.445 -9.9375 7.125 C-11.18466797 7.32416016 -11.18466797 7.32416016 -12.45703125 7.52734375 C-13.54371094 7.70394531 -14.63039063 7.88054687 -15.75 8.0625 C-16.82894531 8.23652344 -17.90789063 8.41054687 -19.01953125 8.58984375 C-21.98683356 9.06371921 -21.98683356 9.06371921 -24.9375 10.125 C-24.9375 11.115 -24.9375 12.105 -24.9375 13.125 C-26.9175 14.115 -28.8975 15.105 -30.9375 16.125 C-30.9375 14.805 -30.9375 13.485 -30.9375 12.125 C-31.9275 12.125 -32.9175 12.125 -33.9375 12.125 C-33.9375 11.465 -33.9375 10.805 -33.9375 10.125 C-33.2775 10.125 -32.6175 10.125 -31.9375 10.125 C-31.9375 9.465 -31.9375 8.805 -31.9375 8.125 C-25.4375 5.125 -25.4375 5.125 -20.9375 5.125 C-20.9375 4.465 -20.9375 3.805 -20.9375 3.125 C-19.2875 3.125 -17.6375 3.125 -15.9375 3.125 C-15.9375 2.465 -15.9375 1.805 -15.9375 1.125 C-10.58013488 0.22854847 -5.42685977 -0.02747777 0 0 Z " fill="#F3E7E6" transform="translate(78.9375,56.875)"/>
<path d="M0 0 C12.92249047 -0.43074968 12.92249047 -0.43074968 18 3 C19 4 19 4 19.09765625 5.84765625 C19.06510417 7.8984375 19.03255208 9.94921875 19 12 C18.34 12 17.68 12 17 12 C17 12.66 17 13.32 17 14 C16.01 14 15.02 14 14 14 C14 14.66 14 15.32 14 16 C9.38 16 4.76 16 0 16 C0 10.72 0 5.44 0 0 Z " fill="#525253" transform="translate(97,129)"/>
<path d="M0 0 C0.7528125 -0.00515625 1.505625 -0.0103125 2.28125 -0.015625 C4.76461212 0.28167892 6.37005466 0.95632387 8.5 2.25 C10.47023645 4.87698193 10.51856679 6.06433214 10.1875 9.375 C9.5 12.25 9.5 12.25 8.5 14.25 C5.21480525 15.34506492 2.76336585 15.34960608 -0.6875 15.3125 C-2.31751953 15.29896484 -2.31751953 15.29896484 -3.98046875 15.28515625 C-4.81191406 15.27355469 -5.64335937 15.26195312 -6.5 15.25 C-6.5 14.59 -6.5 13.93 -6.5 13.25 C-7.49 12.92 -8.48 12.59 -9.5 12.25 C-10.85439668 9.54120665 -10.56501451 7.24066732 -10.5 4.25 C-9.84 4.25 -9.18 4.25 -8.5 4.25 C-8.5 3.59 -8.5 2.93 -8.5 2.25 C-5.54497399 0.55757601 -3.40004978 -0.02328801 0 0 Z " fill="#262626" transform="translate(145.5,128.75)"/>
<path d="M0 0 C1.43836751 0.11458693 2.87570966 0.24209116 4.3125 0.375 C5.51326172 0.47941406 5.51326172 0.47941406 6.73828125 0.5859375 C9 1 9 1 12 3 C12 3.66 12 4.32 12 5 C12.66 5 13.32 5 14 5 C18.84120765 9.43664991 22.50986361 14.78618853 23.28125 21.41796875 C23.51393549 27.82651509 22.64679221 32.96109043 18.3125 37.9375 C17.879375 38.288125 17.44625 38.63875 17 39 C17 38.01 17 37.02 17 36 C15.515 36.495 15.515 36.495 14 37 C14.15597656 36.39414063 14.31195313 35.78828125 14.47265625 35.1640625 C16.16523014 27.8781484 16.99439028 20.82922934 13.4375 14 C12.963125 13.34 12.48875 12.68 12 12 C12 11.34 12 10.68 12 10 C11.34 10 10.68 10 10 10 C10 9.34 10 8.68 10 8 C9.01 8 8.02 8 7 8 C7 7.34 7 6.68 7 6 C6.34 6 5.68 6 5 6 C5 5.34 5 4.68 5 4 C4.01 4 3.02 4 2 4 C2 3.34 2 2.68 2 2 C1.34 2 0.68 2 0 2 C0 1.34 0 0.68 0 0 Z " fill="#F7F1F1" transform="translate(100,63)"/>
<path d="M0 0 C1.65 0 3.3 0 5 0 C5 1.98 5 3.96 5 6 C7.97 6 10.94 6 14 6 C14 4.02 14 2.04 14 0 C15.65 0 17.3 0 19 0 C19 5.28 19 10.56 19 16 C17.35 16 15.7 16 14 16 C14 14.02 14 12.04 14 10 C11.03 10 8.06 10 5 10 C5 11.98 5 13.96 5 16 C3.35 16 1.7 16 0 16 C0 10.72 0 5.44 0 0 Z " fill="#D34C43" transform="translate(3,129)"/>
<path d="M0 0 C1.32 0 2.64 0 4 0 C3.34 1.32 2.68 2.64 2 4 C1.01 4 0.02 4 -1 4 C-1 4.99 -1 5.98 -1 7 C-1.66 7 -2.32 7 -3 7 C-3 7.99 -3 8.98 -3 10 C-4.65 10 -6.3 10 -8 10 C-8 10.66 -8 11.32 -8 12 C-12.89771443 13.57975606 -17.02257561 14.25599736 -22.21875 14.265625 C-22.88032104 14.26753845 -23.54189209 14.2694519 -24.22351074 14.27142334 C-25.61173893 14.27277447 -26.99998023 14.26915358 -28.38818359 14.26074219 C-30.49475901 14.25002666 -32.60048187 14.26067351 -34.70703125 14.2734375 C-36.06510602 14.27211571 -37.42318027 14.26955293 -38.78125 14.265625 C-40.6075293 14.26224121 -40.6075293 14.26224121 -42.47070312 14.25878906 C-46.2959685 13.97829783 -49.36350376 13.17295058 -53 12 C-52.67 11.34 -52.34 10.68 -52 10 C-51.11699219 10.32613281 -50.23398437 10.65226562 -49.32421875 10.98828125 C-43.60366573 12.61963956 -37.70922447 12.24957078 -31.8125 12.1875 C-30.63751953 12.18685547 -29.46253906 12.18621094 -28.25195312 12.18554688 C-21.54619521 12.23903999 -21.54619521 12.23903999 -15 11 C-16.68300669 9.31699331 -18.82008727 9.77190923 -21.12890625 9.68359375 C-22.16337891 9.64169922 -23.19785156 9.59980469 -24.26367188 9.55664062 C-25.35228516 9.51732422 -26.44089844 9.47800781 -27.5625 9.4375 C-28.65498047 9.39431641 -29.74746094 9.35113281 -30.87304688 9.30664062 C-33.58189564 9.20017932 -36.29083992 9.09816484 -39 9 C-39 8.67 -39 8.34 -39 8 C-37.88882813 7.95101562 -36.77765625 7.90203125 -35.6328125 7.8515625 C-21.95099367 7.70420911 -21.95099367 7.70420911 -9.3125 3.375 C-6.15400931 1.49697851 -3.60146608 1.78814905 0 2 C0 1.34 0 0.68 0 0 Z " fill="#D24647" transform="translate(110,110)"/>
<path d="M0 0 C5.94 0 11.88 0 18 0 C18 1.98 18 3.96 18 6 C16.35 6 14.7 6 13 6 C13.01160156 6.78246094 13.02320313 7.56492188 13.03515625 8.37109375 C13.04417969 9.38300781 13.05320312 10.39492187 13.0625 11.4375 C13.07410156 12.44683594 13.08570313 13.45617187 13.09765625 14.49609375 C13 17 13 17 12 18 C10.02 18 8.04 18 6 18 C6 13.71 6 9.42 6 5 C3.69 5.33 1.38 5.66 -1 6 C-1.33 5.34 -1.66 4.68 -2 4 C-1.34 4 -0.68 4 0 4 C0 2.68 0 1.36 0 0 Z " fill="#EFB0B0" transform="translate(46,128)"/>
<path d="M0 0 C0.33 2.97 0.66 5.94 1 9 C1.66 9 2.32 9 3 9 C3 9.66 3 10.32 3 11 C3.66 11 4.32 11 5 11 C5 11.66 5 12.32 5 13 C6.32 13.66 7.64 14.32 9 15 C8.67 17.31 8.34 19.62 8 22 C6.125 21.6875 6.125 21.6875 4 21 C3.34 20.01 2.68 19.02 2 18 C0.03247172 16.93753473 -1.96587579 15.92862192 -4 15 C-4 14.34 -4 13.68 -4 13 C-4.66 13 -5.32 13 -6 13 C-7.35439668 10.29120665 -7.06501451 7.99066732 -7 5 C-6.34 5 -5.68 5 -5 5 C-5 4.34 -5 3.68 -5 3 C-4.34 3 -3.68 3 -3 3 C-3 2.34 -3 1.68 -3 1 C-1 0 -1 0 0 0 Z " fill="#C74035" transform="translate(124,4)"/>
<path d="M0 0 C3.96 0 7.92 0 12 0 C12 0.99 12 1.98 12 3 C10.865625 3.12375 9.73125 3.2475 8.5625 3.375 C6.7990625 3.684375 6.7990625 3.684375 5 4 C4.67 4.66 4.34 5.32 4 6 C6.64 6 9.28 6 12 6 C11.67 7.32 11.34 8.64 11 10 C9.02 10 7.04 10 5 10 C5 10.66 5 11.32 5 12 C7.64 12 10.28 12 13 12 C13 13.32 13 14.64 13 16 C8.71 16 4.42 16 0 16 C0 10.72 0 5.44 0 0 Z " fill="#292929" transform="translate(120,129)"/>
<path d="M0 0 C1.32 0.33 2.64 0.66 4 1 C5.69378322 7.65414837 5.69378322 7.65414837 3.765625 11.39453125 C2.69600452 12.93020066 1.59021915 14.44148408 0.4453125 15.921875 C-1.00034927 18.0005022 -1.56590791 19.52901423 -2 22 C-4.375 21.6875 -4.375 21.6875 -7 21 C-9 18 -9 18 -8.875 15.6875 C-7.77485674 12.30848857 -6.15740664 9.81116623 -4 7 C-3.34 7 -2.68 7 -2 7 C-2 6.34 -2 5.68 -2 5 C-1.34 5 -0.68 5 0 5 C0 3.35 0 1.7 0 0 Z " fill="#DD4737" transform="translate(32,17)"/>
<path d="M0 0 C1.98 0 3.96 0 6 0 C7.32 3.3 8.64 6.6 10 10 C11.65 6.7 13.3 3.4 15 0 C16.65 0 18.3 0 20 0 C18.45454854 5.47932789 15.84456788 10.11429181 13 15 C10.3125 15.5 10.3125 15.5 7 15 C3.04676503 10.78964405 1.26596046 5.52419112 0 0 Z " fill="#272727" transform="translate(65,129)"/>
<path d="M0 0 C1.32 0 2.64 0 4 0 C4 0.66 4 1.32 4 2 C5.65 2 7.3 2 9 2 C9 1.34 9 0.68 9 0 C13.03867161 0.11872832 17.07713142 0.24300659 21.11547852 0.37231445 C22.48782776 0.4154884 23.86022467 0.45717501 25.23266602 0.49731445 C27.21122068 0.55544392 29.1895997 0.6194571 31.16796875 0.68359375 C32.95110474 0.73858032 32.95110474 0.73858032 34.77026367 0.79467773 C37.61404847 0.97546411 40.22906805 1.35809408 43 2 C36.22806216 5.62782384 29.73001008 5.18336258 22.1875 5.1875 C21.02412109 5.19974609 19.86074219 5.21199219 18.66210938 5.22460938 C11.26098789 5.23724646 5.30700637 5.20467092 -1 1 C-0.67 0.67 -0.34 0.34 0 0 Z " fill="#CB1013" transform="translate(56,118)"/>
<path d="M0 0 C2.64 0.33 5.28 0.66 8 1 C8 6.61 8 12.22 8 18 C7.34 17.67 6.68 17.34 6 17 C3.90178785 17.39938767 3.90178785 17.39938767 2 18 C1.731875 17.030625 1.46375 16.06125 1.1875 15.0625 C0.795625 14.051875 0.40375 13.04125 0 12 C-0.99 11.67 -1.98 11.34 -3 11 C-2.484375 10.278125 -1.96875 9.55625 -1.4375 8.8125 C0.23125127 5.54755187 -0.04758264 4.42870249 -1 1 C-0.67 0.67 -0.34 0.34 0 0 Z " fill="#DD2D23" transform="translate(121,61)"/>
<path d="M0 0 C0.75990234 -0.00386719 1.51980469 -0.00773437 2.30273438 -0.01171875 C7.30613828 -0.00317323 12.10947326 0.41500982 17.0625 1.125 C17.0625 1.785 17.0625 2.445 17.0625 3.125 C18.7125 3.125 20.3625 3.125 22.0625 3.125 C22.0625 3.785 22.0625 4.445 22.0625 5.125 C23.0525 5.455 24.0425 5.785 25.0625 6.125 C23.7425 6.125 22.4225 6.125 21.0625 6.125 C21.0625 6.785 21.0625 7.445 21.0625 8.125 C21.7225 8.455 22.3825 8.785 23.0625 9.125 C17.1225 8.135 17.1225 8.135 11.0625 7.125 C11.0625 6.465 11.0625 5.805 11.0625 5.125 C4.1325 5.125 -2.7975 5.125 -9.9375 5.125 C-9.9375 5.785 -9.9375 6.445 -9.9375 7.125 C-11.5875 7.125 -13.2375 7.125 -14.9375 7.125 C-14.9375 6.465 -14.9375 5.805 -14.9375 5.125 C-11.90980685 4.26388484 -9.09483363 3.94269107 -5.953125 3.80859375 C-5.01855469 3.76669922 -4.08398438 3.72480469 -3.12109375 3.68164062 C-2.15300781 3.64232422 -1.18492188 3.60300781 -0.1875 3.5625 C1.28783203 3.49772461 1.28783203 3.49772461 2.79296875 3.43164062 C5.21601275 3.32577948 7.6391554 3.22369829 10.0625 3.125 C6.58550537 2.31633328 3.54087556 2.04950687 -0.01953125 2.24609375 C-1.41655273 2.31860352 -1.41655273 2.31860352 -2.84179688 2.39257812 C-3.80150391 2.44865234 -4.76121094 2.50472656 -5.75 2.5625 C-6.72904297 2.61470703 -7.70808594 2.66691406 -8.71679688 2.72070312 C-11.1240609 2.84987339 -13.53085638 2.98481643 -15.9375 3.125 C-15.9375 2.465 -15.9375 1.805 -15.9375 1.125 C-10.58013488 0.22854847 -5.42685977 -0.02747777 0 0 Z " fill="#D8BFBE" transform="translate(78.9375,56.875)"/>
<path d="M0 0 C0.6484375 1.76953125 0.6484375 1.76953125 1 4 C0.0390625 5.88671875 0.0390625 5.88671875 -1.375 7.6875 C-1.83648437 8.28949219 -2.29796875 8.89148438 -2.7734375 9.51171875 C-4 11 -4 11 -5 12 C-3.35 12.33 -1.7 12.66 0 13 C0 11.02 0 9.04 0 7 C1.98 6.34 3.96 5.68 6 5 C6.33 5.66 6.66 6.32 7 7 C6.67 7.66 6.34 8.32 6 9 C5.34 9 4.68 9 4 9 C3.67 10.32 3.34 11.64 3 13 C2.34 13 1.68 13 1 13 C1 13.66 1 14.32 1 15 C-0.65 15.33 -2.3 15.66 -4 16 C-4 16.66 -4 17.32 -4 18 C-7 20 -7 20 -11 20 C-11 20.66 -11 21.32 -11 22 C-11.99 21.67 -12.98 21.34 -14 21 C-13.34 21 -12.68 21 -12 21 C-12 20.01 -12 19.02 -12 18 C-11.360625 17.71125 -10.72125 17.4225 -10.0625 17.125 C-7.84793921 16.17176549 -7.84793921 16.17176549 -7 14 C-8.32 14 -9.64 14 -11 14 C-11 14.66 -11 15.32 -11 16 C-12.32 16 -13.64 16 -15 16 C-15 15.34 -15 14.68 -15 14 C-9.25 11 -9.25 11 -7 11 C-7 10.34 -7 9.68 -7 9 C-6.34 9 -5.68 9 -5 9 C-5 8.34 -5 7.68 -5 7 C-4.34 7 -3.68 7 -3 7 C-2.690625 6.21625 -2.38125 5.4325 -2.0625 4.625 C-1 2 -1 2 0 0 Z " fill="#CB3031" transform="translate(121,96)"/>
<path d="M0 0 C0.69278763 2.15533928 1.11523472 3.56210807 0.53125 5.78125 C-0.11812621 8.49335064 -0.09566283 10.96432232 -0.0625 13.75 C-0.04896484 15.22726563 -0.04896484 15.22726563 -0.03515625 16.734375 C-0.02355469 17.48203125 -0.01195313 18.2296875 0 19 C1.32 19 2.64 19 4 19 C3.37240135 21.92879371 2.41377341 24.36095629 1 27 C-1.475 26.01 -1.475 26.01 -4 25 C-4 24.34 -4 23.68 -4 23 C-4.66 23 -5.32 23 -6 23 C-6 22.34 -6 21.68 -6 21 C-6.99 20.67 -7.98 20.34 -9 20 C-9.6875 17.9375 -9.6875 17.9375 -10 16 C-8.5459375 15.443125 -8.5459375 15.443125 -7.0625 14.875 C-3.68859031 13.28947638 -3.68859031 13.28947638 -3.125 9.8125 C-3.08375 8.884375 -3.0425 7.95625 -3 7 C-2.34 7 -1.68 7 -1 7 C-0.67 4.69 -0.34 2.38 0 0 Z " fill="#CD342F" transform="translate(118,45)"/>
<path d="M0 0 C1.43836751 0.11458693 2.87570966 0.24209116 4.3125 0.375 C5.51326172 0.47941406 5.51326172 0.47941406 6.73828125 0.5859375 C9 1 9 1 12 3 C12 3.66 12 4.32 12 5 C12.66 5 13.32 5 14 5 C15.47265625 6.42578125 15.47265625 6.42578125 17.0625 8.3125 C17.58972656 8.92738281 18.11695312 9.54226562 18.66015625 10.17578125 C20 12 20 12 21 15 C19.02 15.66 17.04 16.32 15 17 C12 12.25 12 12.25 12 10 C11.34 10 10.68 10 10 10 C10 9.34 10 8.68 10 8 C9.01 8 8.02 8 7 8 C7 7.34 7 6.68 7 6 C6.34 6 5.68 6 5 6 C5 5.34 5 4.68 5 4 C4.01 4 3.02 4 2 4 C2 3.34 2 2.68 2 2 C1.34 2 0.68 2 0 2 C0 1.34 0 0.68 0 0 Z " fill="#F2E4E4" transform="translate(100,63)"/>
<path d="M0 0 C0.33 0 0.66 0 1 0 C1.34501354 6.35080478 1.52439131 11.54287798 -2 17 C-5.6875 18.4375 -5.6875 18.4375 -9 19 C-9.33 20.98 -9.66 22.96 -10 25 C-11.98 25 -13.96 25 -16 25 C-16 24.34 -16 23.68 -16 23 C-15.236875 22.29875 -14.47375 21.5975 -13.6875 20.875 C-10.39141811 17.34895891 -9.46719365 14.55602238 -8 10 C-6.5459375 10.0309375 -6.5459375 10.0309375 -5.0625 10.0625 C-2.12534105 10.35618499 -2.12534105 10.35618499 -1 9 C-0.76807135 7.48530552 -0.58784762 5.96245438 -0.4375 4.4375 C-0.35371094 3.61121094 -0.26992187 2.78492187 -0.18359375 1.93359375 C-0.12300781 1.29550781 -0.06242188 0.65742187 0 0 Z " fill="#CD2423" transform="translate(131,84)"/>
<path d="M0 0 C1.65 0 3.3 0 5 0 C5 2.31 5 4.62 5 7 C7.97 7 10.94 7 14 7 C14 7.33 14 7.66 14 8 C11.03 8 8.06 8 5 8 C5 10.64 5 13.28 5 16 C3.35 16 1.7 16 0 16 C0 10.72 0 5.44 0 0 Z " fill="#C93A32" transform="translate(3,129)"/>
<path d="M0 0 C1.31668238 5.3864279 1.31668238 5.3864279 0 7.9375 C-3.11004763 9.58971281 -5.65727278 8.69377357 -9 8 C-10.31668238 2.6135721 -10.31668238 2.6135721 -9 0.0625 C-5.88995237 -1.58971281 -3.34272722 -0.69377357 0 0 Z " fill="#FDF6F5" transform="translate(40,133)"/>
<path d="M0 0 C6.1105424 -0.11269443 11.95170514 0.10395632 18 1 C18 1.33 18 1.66 18 2 C15.03 2 12.06 2 9 2 C9 2.66 9 3.32 9 4 C10.81293089 3.85962479 12.6253443 3.71255111 14.4375 3.5625 C15.44683594 3.48128906 16.45617187 3.40007812 17.49609375 3.31640625 C19.93640779 3.26788532 19.93640779 3.26788532 21 2 C23.01594582 1.76572222 25.038474 1.58663876 27.0625 1.4375 C28.71958984 1.31181641 28.71958984 1.31181641 30.41015625 1.18359375 C31.26480469 1.12300781 32.11945313 1.06242187 33 1 C32 3 32 3 30.3125 3.6328125 C16.63646792 6.5435896 3.43952982 5.28652258 -10 2 C-10 1.67 -10 1.34 -10 1 C-6.7 1 -3.4 1 0 1 C0 0.67 0 0.34 0 0 Z " fill="#E4B9BA" transform="translate(66,113)"/>
<path d="M0 0 C2.97 0 5.94 0 9 0 C10.125 5.75 10.125 5.75 9 8 C5.44307323 8.85056945 3.50729422 9.16909807 0 8 C-1.125 2.25 -1.125 2.25 0 0 Z " fill="#E2E2E2" transform="translate(141,133)"/>
<path d="M0 0 C2.68853232 0.2830034 4.58222312 0.73540798 6.875 2.1875 C8 4 8 4 7.6875 7.1875 C7.460625 8.115625 7.23375 9.04375 7 10 C4.36 10.33 1.72 10.66 -1 11 C-1.02688151 9.35425434 -1.04634123 7.70838587 -1.0625 6.0625 C-1.07410156 5.14597656 -1.08570312 4.22945312 -1.09765625 3.28515625 C-1 1 -1 1 0 0 Z " fill="#F7F7F9" transform="translate(103,131)"/>
<path d="M0 0 C0.9583374 0.00523682 1.9166748 0.01047363 2.90405273 0.01586914 C4.45576172 0.02070312 4.45576172 0.02070312 6.03881836 0.02563477 C7.12743164 0.03401367 8.21604492 0.04239258 9.33764648 0.05102539 C10.97636719 0.05779297 10.97636719 0.05779297 12.64819336 0.06469727 C15.35723144 0.07652713 18.06616248 0.09300996 20.77514648 0.11352539 C20.77514648 0.77352539 20.77514648 1.43352539 20.77514648 2.11352539 C20.14423096 2.13858154 19.51331543 2.1636377 18.86328125 2.18945312 C16.02117824 2.30506676 13.17943566 2.42794855 10.33764648 2.55102539 C8.8478125 2.61 8.8478125 2.61 7.32788086 2.67016602 C5.91152344 2.73300781 5.91152344 2.73300781 4.46655273 2.79711914 C3.15473022 2.85210571 3.15473022 2.85210571 1.81640625 2.90820312 C-0.21759371 2.89533605 -0.21759371 2.89533605 -1.22485352 4.11352539 C-2.89102467 4.15416371 -4.55873446 4.15624639 -6.22485352 4.11352539 C-6.22485352 4.77352539 -6.22485352 5.43352539 -6.22485352 6.11352539 C-9.85485352 6.44352539 -13.48485352 6.77352539 -17.22485352 7.11352539 C-15.90485352 6.78352539 -14.58485352 6.45352539 -13.22485352 6.11352539 C-13.22485352 5.45352539 -13.22485352 4.79352539 -13.22485352 4.11352539 C-12.51458008 3.90856445 -11.80430664 3.70360352 -11.07250977 3.49243164 C-10.1534082 3.22301758 -9.23430664 2.95360352 -8.28735352 2.67602539 C-7.37083008 2.40918945 -6.45430664 2.14235352 -5.51000977 1.86743164 C-3.01045022 1.04279063 -2.60788628 0.13307002 0 0 Z " fill="#D72017" transform="translate(69.224853515625,53.886474609375)"/>
<path d="M0 0 C0.33 0.99 0.66 1.98 1 3 C-0.65 3.66 -2.3 4.32 -4 5 C-3.01 5.66 -2.02 6.32 -1 7 C-2.60681641 7.19916016 -2.60681641 7.19916016 -4.24609375 7.40234375 C-5.64325769 7.5805056 -7.04039159 7.75890319 -8.4375 7.9375 C-9.14455078 8.02451172 -9.85160156 8.11152344 -10.58007812 8.20117188 C-14.08817968 8.38216191 -14.08817968 8.38216191 -17 10 C-18.85287502 10.07226502 -20.70833878 10.0838122 -22.5625 10.0625 C-23.57441406 10.05347656 -24.58632812 10.04445313 -25.62890625 10.03515625 C-26.41136719 10.02355469 -27.19382812 10.01195313 -28 10 C-28 9.34 -28 8.68 -28 8 C-25.03 8 -22.06 8 -19 8 C-19 7.34 -19 6.68 -19 6 C-15.92382812 5.70703125 -15.92382812 5.70703125 -12.84765625 5.4140625 C-12.23792969 5.27742188 -11.62820312 5.14078125 -11 5 C-10.67 4.34 -10.34 3.68 -10 3 C-7.71484375 2.1484375 -7.71484375 2.1484375 -4.9375 1.375 C-4.01839844 1.11460938 -3.09929687 0.85421875 -2.15234375 0.5859375 C-1.44207031 0.39257812 -0.73179688 0.19921875 0 0 Z " fill="#D3CDCE" transform="translate(103,107)"/>
<path d="M0 0 C1.65 0 3.3 0 5 0 C5 5.28 5 10.56 5 16 C3.35 16 1.7 16 0 16 C0 10.72 0 5.44 0 0 Z " fill="#3E3E3E" transform="translate(88,129)"/>
<path d="M0 0 C5.28 0 10.56 0 16 0 C16 0.66 16 1.32 16 2 C14.02 2 12.04 2 10 2 C10 5.96 10 9.92 10 14 C8.68 14 7.36 14 6 14 C5.67 10.04 5.34 6.08 5 2 C3.35 1.67 1.7 1.34 0 1 C0 0.67 0 0.34 0 0 Z " fill="#C5312A" transform="translate(47,130)"/>
<path d="M0 0 C1.32 0 2.64 0 4 0 C4.33 1.65 4.66 3.3 5 5 C5.66 5 6.32 5 7 5 C7 5.66 7 6.32 7 7 C7.66 7 8.32 7 9 7 C9 7.66 9 8.32 9 9 C9.66 9 10.32 9 11 9 C11 9.66 11 10.32 11 11 C11.66 11 12.32 11 13 11 C12.67 11.99 12.34 12.98 12 14 C11.34 14 10.68 14 10 14 C9.67 12.68 9.34 11.36 9 10 C8.34 10 7.68 10 7 10 C7 9.34 7 8.68 7 8 C6.071875 8.061875 5.14375 8.12375 4.1875 8.1875 C1 8 1 8 -0.875 6.6875 C-2 5 -2 5 -2 2 C-1.34 2 -0.68 2 0 2 C0 1.34 0 0.68 0 0 Z " fill="#F0422B" transform="translate(119,10)"/>
<path d="M0 0 C0.33 0.99 0.66 1.98 1 3 C-0.8125 5.6875 -0.8125 5.6875 -3 8 C-3.66 8 -4.32 8 -5 8 C-5 8.66 -5 9.32 -5 10 C-7.97 9.67 -10.94 9.34 -14 9 C-13.34 8.67 -12.68 8.34 -12 8 C-12 7.34 -12 6.68 -12 6 C-11.34 6 -10.68 6 -10 6 C-10 5.34 -10 4.68 -10 4 C-6.49223216 2.39644899 -3.85645121 1.77963136 0 2 C0 1.34 0 0.68 0 0 Z " fill="#D2453E" transform="translate(135,52)"/>
<path d="M0 0 C3.3 0.33 6.6 0.66 10 1 C10.33 1.99 10.66 2.98 11 4 C19.58 3.67 28.16 3.34 37 3 C36.67 3.66 36.34 4.32 36 5 C33.50778307 5.34866782 31.1308073 5.56510619 28.625 5.6875 C27.90634766 5.7280249 27.18769531 5.7685498 26.44726562 5.81030273 C20.56504841 6.08906526 14.83824448 5.80399553 9 5 C9 4.34 9 3.68 9 3 C8.071875 2.87625 7.14375 2.7525 6.1875 2.625 C3 2 3 2 0 0 Z " fill="#5C5B5C" transform="translate(56,108)"/>
<path d="M0 0 C0 0.33 0 0.66 0 1 C-13.365 1.495 -13.365 1.495 -27 2 C-27 1.01 -27 0.02 -27 -1 C-8.25 -2.75 -8.25 -2.75 0 0 Z " fill="#FCF5F6" transform="translate(91,60)"/>
<path d="M0 0 C1.98 0 3.96 0 6 0 C9.62870159 8.261959 9.62870159 8.261959 8 13 C5 12 5 12 3.4375 9.875 C1.82665374 6.65330747 0.88813758 3.48423204 0 0 Z " fill="#121212" transform="translate(65,129)"/>
<path d="M0 0 C2.25245881 2.68841859 3.88213958 4.64641875 5 8 C4.71395102 9.67542976 4.38218767 11.34385343 4 13 C4 13.66 4 14.32 4 15 C4.66 15.33 5.32 15.66 6 16 C6 16.99 6 17.98 6 19 C3.525 18.01 3.525 18.01 1 17 C1 16.34 1 15.68 1 15 C0.34 15 -0.32 15 -1 15 C-1.33 14.01 -1.66 13.02 -2 12 C-1.34 12 -0.68 12 0 12 C0 8.04 0 4.08 0 0 Z " fill="#CE3134" transform="translate(36,94)"/>
<path d="M0 0 C4.875 0.875 4.875 0.875 6 2 C5.30232558 8.39534884 5.30232558 8.39534884 4 11 C2.02 11 0.04 11 -2 11 C-2 10.34 -2 9.68 -2 9 C-1.34 9 -0.68 9 0 9 C0 6.03 0 3.06 0 0 Z " fill="#C8392F" transform="translate(40,132)"/>
<path d="M0 0 C2.97 0 5.94 0 9 0 C8.67 0.66 8.34 1.32 8 2 C7.01 2.33 6.02 2.66 5 3 C5.20625 3.598125 5.4125 4.19625 5.625 4.8125 C6 7 6 7 4 10 C3.443125 9.195625 2.88625 8.39125 2.3125 7.5625 C-0.21864487 4.75771784 -1.32579134 4.30618405 -5 4 C-5 3.34 -5 2.68 -5 2 C-3.35 2 -1.7 2 0 2 C0 1.34 0 0.68 0 0 Z " fill="#CF3833" transform="translate(24,60)"/>
<path d="M0 0 C0.33 2.97 0.66 5.94 1 9 C1.66 9 2.32 9 3 9 C3 9.66 3 10.32 3 11 C0.125 10.6875 0.125 10.6875 -3 10 C-5.29013653 6.5647952 -5.17842973 5.014669 -5 1 C-3 0 -3 0 0 0 Z " fill="#171717" transform="translate(140,132)"/>
<path d="M0 0 C1.79244141 0.01740234 1.79244141 0.01740234 3.62109375 0.03515625 C5.41740234 0.04869141 5.41740234 0.04869141 7.25 0.0625 C8.17683594 0.07410156 9.10367188 0.08570312 10.05859375 0.09765625 C10.05859375 0.75765625 10.05859375 1.41765625 10.05859375 2.09765625 C11.70859375 2.09765625 13.35859375 2.09765625 15.05859375 2.09765625 C15.05859375 2.42765625 15.05859375 2.75765625 15.05859375 3.09765625 C6.47859375 3.09765625 -2.10140625 3.09765625 -10.94140625 3.09765625 C-10.94140625 2.76765625 -10.94140625 2.43765625 -10.94140625 2.09765625 C-9.80703125 1.95328125 -8.67265625 1.80890625 -7.50390625 1.66015625 C-3.948759 1.09881721 -3.41927188 0.11352164 0 0 Z " fill="#CA1D20" transform="translate(75.94140625,119.90234375)"/>
<path d="M0 0 C6.93 0 13.86 0 21 0 C21 0.33 21 0.66 21 1 C14.4 1 7.8 1 1 1 C1 1.66 1 2.32 1 3 C-0.98 3 -2.96 3 -5 3 C-5 3.66 -5 4.32 -5 5 C-8.3 5.33 -11.6 5.66 -15 6 C-12.04731694 3.04731694 -10.83591059 2.07927075 -6.73828125 1.90234375 C-5.93777344 1.91394531 -5.13726562 1.92554688 -4.3125 1.9375 C-3.10013672 1.95103516 -3.10013672 1.95103516 -1.86328125 1.96484375 C-0.94095703 1.98224609 -0.94095703 1.98224609 0 2 C0 1.34 0 0.68 0 0 Z " fill="#2C2A2B" transform="translate(69,62)"/>
<path d="M0 0 C0.98120464 3.05263664 0.98120464 4.94736336 0 8 C-0.66 8 -1.32 8 -2 8 C-1.979375 9.051875 -1.95875 10.10375 -1.9375 11.1875 C-1.98896802 14.32704904 -2.26517187 16.96883396 -3 20 C-3.99 20 -4.98 20 -6 20 C-6 19.34 -6 18.68 -6 18 C-6.99 18.33 -7.98 18.66 -9 19 C-9 17.68 -9 16.36 -9 15 C-8.195625 14.79375 -7.39125 14.5875 -6.5625 14.375 C-5.716875 13.92125 -4.87125 13.4675 -4 13 C-3.10169161 9.94727535 -3.10169161 9.94727535 -3 7 C-2.34 7 -1.68 7 -1 7 C-0.67 4.69 -0.34 2.38 0 0 Z " fill="#D43023" transform="translate(118,45)"/>
<path d="M0 0 C0.7425 0.495 0.7425 0.495 1.5 1 C-2.09462331 3.25998595 -5.06595675 3.20868087 -9.25 3.125 C-10.42046875 3.10695312 -11.5909375 3.08890625 -12.796875 3.0703125 C-14.13492187 3.03550781 -14.13492187 3.03550781 -15.5 3 C-15.5 2.34 -15.5 1.68 -15.5 1 C-10.50367864 -1.49816068 -5.28145731 -2.11258292 0 0 Z " fill="#D65B54" transform="translate(42.5,130)"/>
<path d="M0 0 C0.33 0 0.66 0 1 0 C1.04898438 0.85464844 1.09796875 1.70929688 1.1484375 2.58984375 C1.22320312 3.69457031 1.29796875 4.79929687 1.375 5.9375 C1.44460937 7.03964844 1.51421875 8.14179687 1.5859375 9.27734375 C1.72257813 10.17582031 1.85921875 11.07429688 2 12 C2.66 12.33 3.32 12.66 4 13 C3.67 19.27 3.34 25.54 3 32 C2.01 32.495 2.01 32.495 1 33 C1.01160156 31.87980469 1.02320313 30.75960937 1.03515625 29.60546875 C1.04453622 28.13281417 1.0536362 26.66015778 1.0625 25.1875 C1.07087891 24.44951172 1.07925781 23.71152344 1.08789062 22.95117188 C1.10259828 19.70077932 1.03531702 17.10595105 0 14 C-0.06970052 11.60509014 -0.08448003 9.20832309 -0.0625 6.8125 C-0.05347656 5.54019531 -0.04445312 4.26789063 -0.03515625 2.95703125 C-0.02355469 1.98121094 -0.01195312 1.00539063 0 0 Z " fill="#E8BAB8" transform="translate(130,63)"/>
<path d="M0 0 C0.33 0.66 0.66 1.32 1 2 C0.01 3.485 0.01 3.485 -1 5 C-1.66 5 -2.32 5 -3 5 C-7.19411683 11.89999866 -7.75612444 18.00088158 -8 26 C-8.33 26 -8.66 26 -9 26 C-9.738041 10.25512528 -9.738041 10.25512528 -5 3 C-4.34 3 -3.68 3 -3 3 C-3 2.34 -3 1.68 -3 1 C-2.01 0.67 -1.02 0.34 0 0 Z " fill="#BC3A33" transform="translate(47,34)"/>
<path d="M0 0 C0.66 0 1.32 0 2 0 C2 1.98 2 3.96 2 6 C-1.96 6 -5.92 6 -10 6 C-10 4.68 -10 3.36 -10 2 C-9.04287109 1.90912109 -9.04287109 1.90912109 -8.06640625 1.81640625 C-6.82697266 1.69072266 -6.82697266 1.69072266 -5.5625 1.5625 C-4.73878906 1.48128906 -3.91507813 1.40007812 -3.06640625 1.31640625 C-1.01337975 1.21069185 -1.01337975 1.21069185 0 0 Z " fill="#DC4643" transform="translate(18,133)"/>
<path d="M0 0 C0.66 0 1.32 0 2 0 C1.67 1.65 1.34 3.3 1 5 C1.99 5 2.98 5 4 5 C4 4.34 4 3.68 4 3 C5.375 1.375 5.375 1.375 7 0 C7.66 0 8.32 0 9 0 C8.01 2.97 7.02 5.94 6 9 C3.625 8.6875 3.625 8.6875 1 8 C-1 5 -1 5 -0.625 2.3125 C-0.41875 1.549375 -0.2125 0.78625 0 0 Z " fill="#C33E31" transform="translate(24,30)"/>
<path d="M0 0 C0 0.33 0 0.66 0 1 C-2.31 1 -4.62 1 -7 1 C-7 2.65 -7 4.3 -7 6 C-4.69 6.33 -2.38 6.66 0 7 C-0.66 7.66 -1.32 8.32 -2 9 C-5.625 8.625 -5.625 8.625 -9 8 C-10.31668238 2.6135721 -10.31668238 2.6135721 -9 0.0625 C-5.88995237 -1.58971281 -3.34272722 -0.69377357 0 0 Z " fill="#F9BDB9" transform="translate(40,133)"/>
<path d="M0 0 C0.66 0.33 1.32 0.66 2 1 C0.515 3.475 0.515 3.475 -1 6 C-0.01 6.33 0.98 6.66 2 7 C0.02 7.99 -1.96 8.98 -4 10 C-4 8.68 -4 7.36 -4 6 C-4.99 6 -5.98 6 -7 6 C-7 5.34 -7 4.68 -7 4 C-6.34 4 -5.68 4 -5 4 C-5 3.34 -5 2.68 -5 2 C-2.625 0.9375 -2.625 0.9375 0 0 Z " fill="#F3B1B0" transform="translate(52,63)"/>
<path d="M0 0 C0.66 0 1.32 0 2 0 C2 0.66 2 1.32 2 2 C3.175625 2.144375 4.35125 2.28875 5.5625 2.4375 C9.38212272 2.91410176 13.19110019 3.44453544 17 4 C17 4.33 17 4.66 17 5 C15.02 5 13.04 5 11 5 C11 5.66 11 6.32 11 7 C9.35 7 7.7 7 6 7 C5.67 6.34 5.34 5.68 5 5 C4.154375 4.505 3.30875 4.01 2.4375 3.5 C1.633125 3.005 0.82875 2.51 0 2 C0 1.34 0 0.68 0 0 Z " fill="#CA2427" transform="translate(54,113)"/>
<path d="M0 0 C0.79921875 0.01804688 1.5984375 0.03609375 2.421875 0.0546875 C3.02515625 0.07789063 3.6284375 0.10109375 4.25 0.125 C3.26 0.62 3.26 0.62 2.25 1.125 C2.25 2.115 2.25 3.105 2.25 4.125 C-0.06 4.125 -2.37 4.125 -4.75 4.125 C-5.08 4.785 -5.41 5.445 -5.75 6.125 C-5.75 5.135 -5.75 4.145 -5.75 3.125 C-6.74 2.795 -7.73 2.465 -8.75 2.125 C-5.68753253 0.34090198 -3.52920727 -0.10380021 0 0 Z " fill="#5C5C5C" transform="translate(145.75,128.875)"/>
<path d="M0 0 C-10.8503937 3.12992126 -10.8503937 3.12992126 -15.109375 3.09765625 C-15.86347656 3.09443359 -16.61757812 3.09121094 -17.39453125 3.08789062 C-18.17183594 3.07951172 -18.94914062 3.07113281 -19.75 3.0625 C-20.54277344 3.05798828 -21.33554688 3.05347656 -22.15234375 3.04882812 C-24.10159508 3.03708565 -26.05080738 3.01915146 -28 3 C-28 2.67 -28 2.34 -28 2 C-26.92878906 1.93941406 -25.85757813 1.87882812 -24.75390625 1.81640625 C-23.35675609 1.73201463 -21.95962143 1.64736594 -20.5625 1.5625 C-19.50192383 1.50352539 -19.50192383 1.50352539 -18.41992188 1.44335938 C-14.91309581 1.52375562 -14.91309581 1.52375562 -12 0 C-3.65019011 -1.36882129 -3.65019011 -1.36882129 0 0 Z " fill="#F4B3B2" transform="translate(99,115)"/>
<path d="M0 0 C1.32 0 2.64 0 4 0 C3.34 1.32 2.68 2.64 2 4 C1.01 4 0.02 4 -1 4 C-1 4.66 -1 5.32 -1 6 C-2.32 6 -3.64 6 -5 6 C-5 6.66 -5 7.32 -5 8 C-6.65 8 -8.3 8 -10 8 C-10 7.34 -10 6.68 -10 6 C-8.02 5.34 -6.04 4.68 -4 4 C-4 3.34 -4 2.68 -4 2 C-2.68 2 -1.36 2 0 2 C0 1.34 0 0.68 0 0 Z " fill="#D51E22" transform="translate(110,110)"/>
<path d="M0 0 C3.25696479 0.41755959 4.63443291 0.63443291 7 3 C4.69 3 2.38 3 0 3 C0 4.98 0 6.96 0 9 C2.31 9 4.62 9 7 9 C3.77208445 11.1519437 2.71599191 11.20086443 -1 11 C-1.02688151 9.35425434 -1.04634123 7.70838587 -1.0625 6.0625 C-1.07410156 5.14597656 -1.08570312 4.22945312 -1.09765625 3.28515625 C-1 1 -1 1 0 0 Z " fill="#A7A7A9" transform="translate(103,131)"/>
<path d="M0 0 C0 2.97 0 5.94 0 9 C0.66 9 1.32 9 2 9 C2 9.66 2 10.32 2 11 C0.125 10.6875 0.125 10.6875 -2 10 C-4.12508244 6.81237635 -4.5020163 4.73487777 -5 1 C-2 0 -2 0 0 0 Z " fill="#CB2620" transform="translate(31,132)"/>
<path d="M0 0 C1.32 0 2.64 0 4 0 C4 0.66 4 1.32 4 2 C5.03060547 1.96519531 5.03060547 1.96519531 6.08203125 1.9296875 C7.43361328 1.90261719 7.43361328 1.90261719 8.8125 1.875 C9.70582031 1.85179688 10.59914063 1.82859375 11.51953125 1.8046875 C14 2 14 2 17 4 C14.35261084 5.4606285 13.10551666 6 10 6 C10 5.34 10 4.68 10 4 C7.36 3.67 4.72 3.34 2 3 C2 2.34 2 1.68 2 1 C1.34 0.67 0.68 0.34 0 0 Z " fill="#D24B4E" transform="translate(42,114)"/>
<path d="M0 0 C0.66 0.33 1.32 0.66 2 1 C1.34 2.32 0.68 3.64 0 5 C-0.66 5 -1.32 5 -2 5 C-2 5.99 -2 6.98 -2 8 C-4.31 8.33 -6.62 8.66 -9 9 C-9.33 8.34 -9.66 7.68 -10 7 C-8.02 6.67 -6.04 6.34 -4 6 C-4 5.01 -4 4.02 -4 3 C-3.34 3 -2.68 3 -2 3 C-2 2.34 -2 1.68 -2 1 C-1.34 0.67 -0.68 0.34 0 0 Z " fill="#F6F0F0" transform="translate(108,104)"/>
<path d="M0 0 C1.32 0.33 2.64 0.66 4 1 C5.125 8.75 5.125 8.75 4 11 C3.34 11 2.68 11 2 11 C1.67 9.02 1.34 7.04 1 5 C0.67 5 0.34 5 0 5 C0 3.35 0 1.7 0 0 Z " fill="#CC3B32" transform="translate(32,17)"/>
<path d="M0 0 C0.33 0.66 0.66 1.32 1 2 C1.99 2 2.98 2 4 2 C4 2.66 4 3.32 4 4 C0.57767028 5.14077657 -2.08673217 5.09815117 -5.6875 5.0625 C-7.45673828 5.04896484 -7.45673828 5.04896484 -9.26171875 5.03515625 C-10.16535156 5.02355469 -11.06898437 5.01195312 -12 5 C-7.96707255 2.7655402 -4.55032566 2.45503257 0 2 C0 1.34 0 0.68 0 0 Z " fill="#2D2D2F" transform="translate(110,139)"/>
<path d="M0 0 C0.64453125 1.765625 0.64453125 1.765625 1 4 C0.07421875 5.921875 0.07421875 5.921875 -1.3125 7.75 C-1.76238281 8.36359375 -2.21226563 8.9771875 -2.67578125 9.609375 C-3.11277344 10.06828125 -3.54976563 10.5271875 -4 11 C-4.66 11 -5.32 11 -6 11 C-6 11.66 -6 12.32 -6 13 C-7.32 12.67 -8.64 12.34 -10 12 C-9.01 11.67 -8.02 11.34 -7 11 C-7 10.34 -7 9.68 -7 9 C-6.34 9 -5.68 9 -5 9 C-5 8.34 -5 7.68 -5 7 C-4.34 7 -3.68 7 -3 7 C-2.690625 6.21625 -2.38125 5.4325 -2.0625 4.625 C-1 2 -1 2 0 0 Z " fill="#C13734" transform="translate(121,96)"/>
<path d="M0 0 C0.99 0.33 1.98 0.66 3 1 C2.34 1 1.68 1 1 1 C1 1.99 1 2.98 1 4 C-1.97 4.66 -4.94 5.32 -8 6 C-8 5.34 -8 4.68 -8 4 C-9.32 4 -10.64 4 -12 4 C-12 3.34 -12 2.68 -12 2 C-8.04 2 -4.08 2 0 2 C0 1.34 0 0.68 0 0 Z " fill="#D72717" transform="translate(61,40)"/>
<path d="M0 0 C0.66 0 1.32 0 2 0 C2 0.66 2 1.32 2 2 C2.598125 2.12375 3.19625 2.2475 3.8125 2.375 C6 3 6 3 9 5 C9 5.66 9 6.32 9 7 C9.66 7 10.32 7 11 7 C14 10.46153846 14 10.46153846 14 13 C13.34 13 12.68 13 12 13 C12 12.34 12 11.68 12 11 C11.34 11 10.68 11 10 11 C10 10.01 10 9.02 10 8 C9.34 8 8.68 8 8 8 C8 7.34 8 6.68 8 6 C7.236875 5.896875 6.47375 5.79375 5.6875 5.6875 C2.81583516 4.95288806 1.76957906 4.3283935 0 2 C0 1.34 0 0.68 0 0 Z " fill="#D14D40" transform="translate(83,17)"/>
<path d="M0 0 C0.66 0.33 1.32 0.66 2 1 C0.68 1.33 -0.64 1.66 -2 2 C-2 3.32 -2 4.64 -2 6 C-2.66 6 -3.32 6 -4 6 C-4.33 6.99 -4.66 7.98 -5 9 C-5.66 9 -6.32 9 -7 9 C-7 10.98 -7 12.96 -7 15 C-8.125 13.3125 -8.125 13.3125 -9 11 C-8.08326247 7.86781344 -6.81982071 5.72973106 -5 3 C-4.34 3 -3.68 3 -3 3 C-3 2.34 -3 1.68 -3 1 C-2.01 0.67 -1.02 0.34 0 0 Z " fill="#D85347" transform="translate(72,4)"/>
<path d="M0 0 C2.64 0 5.28 0 8 0 C8 1.32 8 2.64 8 4 C3.71 4 -0.58 4 -5 4 C-5 3.67 -5 3.34 -5 3 C-3.35 2.67 -1.7 2.34 0 2 C0 1.34 0 0.68 0 0 Z " fill="#6D6D6D" transform="translate(125,141)"/>
<path d="M0 0 C3.96 0 7.92 0 12 0 C12 0.99 12 1.98 12 3 C9.36 3.33 6.72 3.66 4 4 C4 3.34 4 2.68 4 2 C2.68 2 1.36 2 0 2 C0 1.34 0 0.68 0 0 Z " fill="#4E4E4E" transform="translate(120,129)"/>
<path d="M0 0 C1.4540625 0.0309375 1.4540625 0.0309375 2.9375 0.0625 C3.2675 0.7225 3.5975 1.3825 3.9375 2.0625 C5.83283342 2.52773063 5.83283342 2.52773063 8 2.6875 C9.299375 2.81125 10.59875 2.935 11.9375 3.0625 C11.9375 3.3925 11.9375 3.7225 11.9375 4.0625 C9.83396505 4.1435206 7.72954048 4.20169907 5.625 4.25 C4.45324219 4.28480469 3.28148438 4.31960937 2.07421875 4.35546875 C-1.0625 4.0625 -1.0625 4.0625 -2.98046875 2.55078125 C-3.33753906 2.05964844 -3.69460937 1.56851563 -4.0625 1.0625 C-3.0625 0.0625 -3.0625 0.0625 0 0 Z " fill="#F9F1F0" transform="translate(62.0625,110.9375)"/>
<path d="M0 0 C0.33 2.97 0.66 5.94 1 9 C0.34 8.67 -0.32 8.34 -1 8 C-1 7.34 -1 6.68 -1 6 C-2.32 6 -3.64 6 -5 6 C-5 6.66 -5 7.32 -5 8 C-5.66 8 -6.32 8 -7 8 C-7 7.01 -7 6.02 -7 5 C-6.34 5 -5.68 5 -5 5 C-5 4.34 -5 3.68 -5 3 C-4.34 3 -3.68 3 -3 3 C-3 2.34 -3 1.68 -3 1 C-1 0 -1 0 0 0 Z " fill="#C4594C" transform="translate(124,4)"/>
<path d="M0 0 C1.98 0 3.96 0 6 0 C6 0.66 6 1.32 6 2 C4.68 2 3.36 2 2 2 C2 2.66 2 3.32 2 4 C0.68 4.33 -0.64 4.66 -2 5 C-2 4.34 -2 3.68 -2 3 C-3.98 3 -5.96 3 -8 3 C-8.33 3.66 -8.66 4.32 -9 5 C-9.66 4.34 -10.32 3.68 -11 3 C-8.59454362 1.79727181 -7.05003047 1.89928528 -4.375 1.9375 C-3.14910156 1.95103516 -3.14910156 1.95103516 -1.8984375 1.96484375 C-0.95871094 1.98224609 -0.95871094 1.98224609 0 2 C0 1.34 0 0.68 0 0 Z " fill="#DC5848" transform="translate(86,0)"/>
<path d="M0 0 C3.63 0 7.26 0 11 0 C11 0.66 11 1.32 11 2 C10.41992188 2.04898437 9.83984375 2.09796875 9.2421875 2.1484375 C4.56076908 2.59649405 0.42514541 3.298021 -4 5 C-3.67 4.01 -3.34 3.02 -3 2 C-2.01 2 -1.02 2 0 2 C0 1.34 0 0.68 0 0 Z " fill="#F9CCC7" transform="translate(75,0)"/>
<path d="M0 0 C0.33 1.32 0.66 2.64 1 4 C1.99 4.33 2.98 4.66 4 5 C4 6.98 4 8.96 4 11 C3.34 11 2.68 11 2 11 C1.34 12.32 0.68 13.64 0 15 C0 10.05 0 5.1 0 0 Z " fill="#FEEEEE" transform="translate(22,130)"/>
<path d="M0 0 C0 0.33 0 0.66 0 1 C-5.64399358 3.44064587 -10.97751478 3.19289099 -17 3 C-17 2.34 -17 1.68 -17 1 C-11.29014022 0.25983299 -5.75813575 -0.10469338 0 0 Z " fill="#FCF2F4" transform="translate(92,114)"/>
<path d="M0 0 C0 0.33 0 0.66 0 1 C-1.65 1 -3.3 1 -5 1 C-5 1.66 -5 2.32 -5 3 C-8.63 3.33 -12.26 3.66 -16 4 C-14.68 3.67 -13.36 3.34 -12 3 C-12 2.34 -12 1.68 -12 1 C-7.67265609 -1.22923777 -4.71599818 -0.92470553 0 0 Z " fill="#D22B23" transform="translate(68,57)"/>
<path d="M0 0 C1.32 0.33 2.64 0.66 4 1 C4 1.66 4 2.32 4 3 C4.66 3 5.32 3 6 3 C5.67 4.32 5.34 5.64 5 7 C3.68 7.33 2.36 7.66 1 8 C0.02391783 5.07175348 -0.08226668 3.04386724 0 0 Z " fill="#CF2B2F" transform="translate(39,102)"/>
<path d="M0 0 C0.33 0.99 0.66 1.98 1 3 C1.66 3 2.32 3 3 3 C3.33 4.32 3.66 5.64 4 7 C3.34 7 2.68 7 2 7 C2 6.34 2 5.68 2 5 C1.01 5.495 1.01 5.495 0 6 C-0.33 6.99 -0.66 7.98 -1 9 C-2.65 8.67 -4.3 8.34 -6 8 C-5.34 7.67 -4.68 7.34 -4 7 C-4 6.34 -4 5.68 -4 5 C-3.34 5 -2.68 5 -2 5 C-1.34 3.35 -0.68 1.7 0 0 Z " fill="#D4D2D0" transform="translate(114,96)"/>
<path d="M0 0 C0.99 0.33 1.98 0.66 3 1 C2.319375 1.680625 1.63875 2.36125 0.9375 3.0625 C-1.3889842 5.94633751 -1.3889842 5.94633751 -0.75 9.8125 C-0.5025 10.864375 -0.255 11.91625 0 13 C-0.66 13 -1.32 13 -2 13 C-3.52846661 9.94306678 -3.23242445 7.37015453 -3 4 C-1.5 1.5625 -1.5 1.5625 0 0 Z " fill="#FBDDD6" transform="translate(85,4)"/>
<path d="M0 0 C0.99 0.66 1.98 1.32 3 2 C3.1875 5.125 3.1875 5.125 3 8 C1.35 8 -0.3 8 -2 8 C-1.34 5.36 -0.68 2.72 0 0 Z " fill="#111112" transform="translate(113,133)"/>
<path d="M0 0 C0.33 0.99 0.66 1.98 1 3 C-4.22512279 4.46670113 -8.5814234 5.22577402 -14 5 C-14 4.67 -14 4.34 -14 4 C-12.39125 3.566875 -12.39125 3.566875 -10.75 3.125 C-7.18205 2.17134117 -7.18205 2.17134117 -4.75 0.875 C-3 0 -3 0 0 0 Z " fill="#CC4143" transform="translate(106,112)"/>
<path d="M0 0 C4.7540859 -0.33168041 7.05646203 0.40556713 11 3 C13.19130534 3.69579454 13.19130534 3.69579454 15 4 C14.67 4.66 14.34 5.32 14 6 C10.7 5.34 7.4 4.68 4 4 C4 3.01 4 2.02 4 1 C2.68 0.67 1.36 0.34 0 0 Z " fill="#999999" transform="translate(83,78)"/>
<path d="M0 0 C1.0625 1.875 1.0625 1.875 2 4 C1.67 4.66 1.34 5.32 1 6 C-0.98 6 -2.96 6 -5 6 C-4.1875 3.5625 -4.1875 3.5625 -3 1 C-2.01 0.67 -1.02 0.34 0 0 Z " fill="#161616" transform="translate(77,138)"/>
<path d="M0 0 C0.99 0 1.98 0 3 0 C3 0.99 3 1.98 3 3 C5.31 3 7.62 3 10 3 C10 3.33 10 3.66 10 4 C7.69 4 5.38 4 3 4 C3 4.99 3 5.98 3 7 C2.01 7.33 1.02 7.66 0 8 C0 5.36 0 2.72 0 0 Z " fill="#090909" transform="translate(121,133)"/>
<path d="M0 0 C0.33 0 0.66 0 1 0 C1 3.3 1 6.6 1 10 C-0.32 10 -1.64 10 -3 10 C-2.25 3.375 -2.25 3.375 0 0 Z " fill="#040406" transform="translate(101,133)"/>
<path d="M0 0 C1.32 0 2.64 0 4 0 C4 2.97 4 5.94 4 9 C3.67 9 3.34 9 3 9 C2.67 7.35 2.34 5.7 2 4 C1.67 6.31 1.34 8.62 1 11 C0.67 11 0.34 11 0 11 C0 7.37 0 3.74 0 0 Z " fill="#030303" transform="translate(88,130)"/>
<path d="M0 0 C2.31 0 4.62 0 7 0 C7 0.33 7 0.66 7 1 C5.35 1 3.7 1 2 1 C2 2.98 2 4.96 2 7 C-0.97 7 -3.94 7 -7 7 C-7 6.67 -7 6.34 -7 6 C-5.02 5.67 -3.04 5.34 -1 5 C-0.67 3.35 -0.34 1.7 0 0 Z " fill="#FFD9D7" transform="translate(15,128)"/>
<path d="M0 0 C0.66 0.66 1.32 1.32 2 2 C1.34 4.31 0.68 6.62 0 9 C-1.98 9 -3.96 9 -6 9 C-6 7 -6 7 -3.5625 4.5 C-2.716875 3.675 -1.87125 2.85 -1 2 C-0.67 1.34 -0.34 0.68 0 0 Z " fill="#DD2526" transform="translate(121,100)"/>
<path d="M0 0 C0.99 0 1.98 0 3 0 C2.37240135 2.92879371 1.41377341 5.36095629 0 8 C-2.475 7.01 -2.475 7.01 -5 6 C-4.01 5.67 -3.02 5.34 -2 5 C-2 4.01 -2 3.02 -2 2 C-1.34 2 -0.68 2 0 2 C0 1.34 0 0.68 0 0 Z " fill="#DC3E32" transform="translate(119,64)"/>
<path d="M0 0 C2.475 0.495 2.475 0.495 5 1 C5.33 1.99 5.66 2.98 6 4 C5.34 4 4.68 4 4 4 C4 6.97 4 9.94 4 13 C3.67 13 3.34 13 3 13 C1.90154282 8.67940177 0.82187261 4.38332057 0 0 Z " fill="#C85C57" transform="translate(102,19)"/>
<path d="M0 0 C1.32 0 2.64 0 4 0 C3.34 1.65 2.68 3.3 2 5 C1.34 5 0.68 5 0 5 C0 5.66 0 6.32 0 7 C-0.99 7 -1.98 7 -3 7 C-3 6.01 -3 5.02 -3 4 C-2.34 3.67 -1.68 3.34 -1 3 C-0.67 2.01 -0.34 1.02 0 0 Z " fill="#EF3D28" transform="translate(28,28)"/>
<path d="M0 0 C1.98 0.495 1.98 0.495 4 1 C3.34 3.64 2.68 6.28 2 9 C1.01 8.67 0.02 8.34 -1 8 C-0.67 5.36 -0.34 2.72 0 0 Z " fill="#E24C34" transform="translate(80,4)"/>
<path d="M0 0 C1.98 0 3.96 0 6 0 C6.33 1.32 6.66 2.64 7 4 C6.01 3.67 5.02 3.34 4 3 C4 4.65 4 6.3 4 8 C3.34 7.67 2.68 7.34 2 7 C1.26924352 4.6859378 0.59861742 2.35171131 0 0 Z " fill="#545454" transform="translate(65,129)"/>
<path d="M0 0 C4 0 4 0 6.25 1.8125 C8 4 8 4 8 7 C5.525 6.01 5.525 6.01 3 5 C3 4.34 3 3.68 3 3 C2.34 3 1.68 3 1 3 C0.67 2.01 0.34 1.02 0 0 Z " fill="#C84745" transform="translate(34,106)"/>
<path d="M0 0 C1.32 0 2.64 0 4 0 C4 0.66 4 1.32 4 2 C5.32 2 6.64 2 8 2 C8.33 2.99 8.66 3.98 9 5 C6.69 4.67 4.38 4.34 2 4 C2 3.34 2 2.68 2 2 C1.34 2 0.68 2 0 2 C0 1.34 0 0.68 0 0 Z " fill="#F8F5F6" transform="translate(100,63)"/>
<path d="M0 0 C1.4913562 2.95754184 2.92596703 5.86051902 4 9 C3.67 9.66 3.34 10.32 3 11 C2.34 11 1.68 11 1 11 C-0.20272819 8.59454362 -0.10071472 7.05003047 -0.0625 4.375 C-0.05347656 3.55773438 -0.04445313 2.74046875 -0.03515625 1.8984375 C-0.02355469 1.27195313 -0.01195313 0.64546875 0 0 Z " fill="#FCDADC" transform="translate(117,53)"/>
<path d="M0 0 C2.31 0 4.62 0 7 0 C7 0.99 7 1.98 7 3 C4.36 3 1.72 3 -1 3 C-0.67 2.01 -0.34 1.02 0 0 Z " fill="#C4C4C4" transform="translate(125,132)"/>
<path d="M0 0 C1.32 0 2.64 0 4 0 C4.33 1.32 4.66 2.64 5 4 C3.35 4.33 1.7 4.66 0 5 C-0.33 4.01 -0.66 3.02 -1 2 C-0.67 1.34 -0.34 0.68 0 0 Z " fill="#EA4323" transform="translate(119,10)"/>
<path d="M0 0 C1.98 0 3.96 0 6 0 C6 0.33 6 0.66 6 1 C4.35 1 2.7 1 1 1 C1.33 3.97 1.66 6.94 2 10 C0.68 10 -0.64 10 -2 10 C-1.34 6.7 -0.68 3.4 0 0 Z " fill="#F8DCDC" transform="translate(46,133)"/>
<path d="M0 0 C1.98 0 3.96 0 6 0 C6 0.66 6 1.32 6 2 C6.66 2 7.32 2 8 2 C8.33 3.65 8.66 5.3 9 7 C8.62875 6.566875 8.2575 6.13375 7.875 5.6875 C5.48718905 3.53847015 2.8980432 2.35242016 0 1 C0 0.67 0 0.34 0 0 Z " fill="#D54D42" transform="translate(120,18)"/>
<path d="M0 0 C0 0.66 0 1.32 0 2 C-3.3 2.33 -6.6 2.66 -10 3 C-6.39703375 -0.60296625 -4.75741099 -1.47643789 0 0 Z " fill="#484848" transform="translate(64,65)"/>
<path d="M0 0 C2.39323804 2.39323804 2.44196109 3.73148638 3 7 C3.33 7.99 3.66 8.98 4 10 C3.01 10.33 2.02 10.66 1 11 C-0.17571451 7.32589215 -0.07366746 3.83070817 0 0 Z " fill="#D23B29" transform="translate(65,25)"/>
<path d="M0 0 C0.598125 0.61875 1.19625 1.2375 1.8125 1.875 C4.00811144 4.13676954 4.00811144 4.13676954 7 6 C6.01 6.99 5.02 7.98 4 9 C1.3144406 6.3144406 0.93950026 3.62378672 0 0 Z " fill="#F0C9C5" transform="translate(125,21)"/>
<path d="M0 0 C2.475 0.495 2.475 0.495 5 1 C4.01 2.98 3.02 4.96 2 7 C0 4 0 4 0 0 Z " fill="#ED3C26" transform="translate(106,25)"/>
<path d="M0 0 C1.125 1.8125 1.125 1.8125 0.8125 4 C0.585625 4.598125 0.35875 5.19625 0.125 5.8125 C-0.205 4.8225 -0.535 3.8325 -0.875 2.8125 C-1.865 2.8125 -2.855 2.8125 -3.875 2.8125 C-3.875 2.1525 -3.875 1.4925 -3.875 0.8125 C-4.865 0.4825 -5.855 0.1525 -6.875 -0.1875 C-2.39774927 -1.51857454 -2.39774927 -1.51857454 0 0 Z " fill="#F9D9D6" transform="translate(117.875,23.1875)"/>
<path d="M0 0 C1.32 0.33 2.64 0.66 4 1 C3.34 1 2.68 1 2 1 C2 1.99 2 2.98 2 4 C-0.31 4 -2.62 4 -5 4 C-5 3.34 -5 2.68 -5 2 C-3.35 2 -1.7 2 0 2 C0 1.34 0 0.68 0 0 Z " fill="#C52826" transform="translate(105,116)"/>
<path d="M0 0 C0.99 0 1.98 0 3 0 C3 0.66 3 1.32 3 2 C3.99 2.33 4.98 2.66 6 3 C4.02 3.99 2.04 4.98 0 6 C0 4.02 0 2.04 0 0 Z " fill="#C6C3C5" transform="translate(48,67)"/>
<path d="M0 0 C0.99 0.33 1.98 0.66 3 1 C2.67 2.98 2.34 4.96 2 7 C0.68 5.35 -0.64 3.7 -2 2 C-1.34 2 -0.68 2 0 2 C0 1.34 0 0.68 0 0 Z " fill="#D84236" transform="translate(27,63)"/>
<path d="M0 0 C2.31 0 4.62 0 7 0 C7.33 1.32 7.66 2.64 8 4 C5.23723823 3.47731534 2.6739124 2.89130413 0 2 C0 1.34 0 0.68 0 0 Z " fill="#D94A48" transform="translate(101,60)"/>
<path d="M0 0 C0.33 0.66 0.66 1.32 1 2 C-1 5 -1 5 -3.625 5.6875 C-4.800625 5.8421875 -4.800625 5.8421875 -6 6 C-5.67 5.01 -5.34 4.02 -5 3 C-4.34 3 -3.68 3 -3 3 C-3 2.34 -3 1.68 -3 1 C-2.01 0.67 -1.02 0.34 0 0 Z " fill="#C95A55" transform="translate(47,34)"/>
<path d="M0 0 C0.99 0.495 0.99 0.495 2 1 C2 1.66 2 2.32 2 3 C2.639375 3.12375 3.27875 3.2475 3.9375 3.375 C4.618125 3.58125 5.29875 3.7875 6 4 C6.33 4.66 6.66 5.32 7 6 C4.03 5.505 4.03 5.505 1 5 C0.67 3.35 0.34 1.7 0 0 Z " fill="#C9392B" transform="translate(117,12)"/>
<path d="M0 0 C0.99 0.33 1.98 0.66 3 1 C3.33 2.65 3.66 4.3 4 6 C2.68 6 1.36 6 0 6 C0 4.02 0 2.04 0 0 Z " fill="#BE2A29" transform="translate(17,138)"/>
<path d="M0 0 C0.98120464 3.05263664 0.98120464 4.94736336 0 8 C-1.32 8 -2.64 8 -4 8 C-4 7.34 -4 6.68 -4 6 C-3.34 6 -2.68 6 -2 6 C-1.34 4.02 -0.68 2.04 0 0 Z " fill="#C12524" transform="translate(42,135)"/>
<path d="M0 0 C6.625 -0.25 6.625 -0.25 10 2 C10 2.66 10 3.32 10 4 C9.278125 3.67 8.55625 3.34 7.8125 3 C4.98302573 1.99396471 2.97104534 1.83022598 0 2 C0 1.34 0 0.68 0 0 Z " fill="#222224" transform="translate(102,130)"/>
<path d="M0 0 C0.66 0.33 1.32 0.66 2 1 C0.19587357 4.26460973 -0.83394693 5.88929795 -4 8 C-3.34 6.02 -2.68 4.04 -2 2 C-1.34 2 -0.68 2 0 2 C0 1.34 0 0.68 0 0 Z " fill="#F4C7C8" transform="translate(43,69)"/>
<path d="M0 0 C2.35171131 0.59861742 4.6859378 1.26924352 7 2 C7.33 2.66 7.66 3.32 8 4 C5.36 3.67 2.72 3.34 0 3 C0 2.01 0 1.02 0 0 Z " fill="#D82C20" transform="translate(105,22)"/>
<path d="M0 0 C-0.33 2.31 -0.66 4.62 -1 7 C-1.268125 6.401875 -1.53625 5.80375 -1.8125 5.1875 C-2.98493467 3.02775192 -4.19369282 1.64209744 -6 0 C-3 -1 -3 -1 0 0 Z " fill="#FBE4E0" transform="translate(135,16)"/>
</svg>
